<?xml version="1.0" encoding="utf-8"?>
<!-- Generator: Adobe Illustrator 16.0.0, SVG Export Plug-In . SVG Version: 6.00 Build 0)  -->
<svg version="1.2" baseProfile="tiny" id="Layer_1" xmlns="http://www.w3.org/2000/svg" xmlns:xlink="http://www.w3.org/1999/xlink"
	 x="0px" y="0px" width="34px" height="34px" viewBox="0 0 34 34" xml:space="preserve">
<path fill="#C2C1C1" d="M33.023,26.002c0-9-8-7-8-14c0-0.58-0.057-1.077-0.158-1.498c-0.525-3.532-2.881-6.366-5.93-7.231
	c0.026-0.123,0.041-0.25,0.041-0.381c0-1.039-0.9-1.89-2-1.89s-2,0.851-2,1.89c0,0.131,0.014,0.258,0.041,0.383
	c-3.421,0.969-5.966,4.416-6.039,8.545c-0.001,0.059-0.002,0.121-0.002,0.183c0,7-8,4.999-8,14c0,2.381,5.331,4.375,12.469,4.877
	c0.671,1.265,2.001,2.123,3.531,2.123c1.53,0,2.86-0.858,3.532-2.123c7.137-0.502,12.469-2.496,12.469-4.877
	c0-0.008-0.002-0.014-0.002-0.021L33.023,26.002z M26.797,27.693c-1.695,0.451-3.691,0.774-5.837,0.957
	c-0.179-2.045-1.894-3.648-3.983-3.648c-2.089,0-3.805,1.604-3.984,3.648c-2.144-0.183-4.142-0.506-5.837-0.959
	c-2.331-0.621-3.445-1.318-3.854-1.689c0.408-0.373,1.522-1.068,3.854-1.689c2.711-0.727,6.2-1.123,9.82-1.123
	c3.622,0,7.109,0.398,9.82,1.123c2.332,0.621,3.446,1.316,3.854,1.689C30.243,26.373,29.129,27.07,26.797,27.693"/>
</svg>
