<?xml version="1.0" encoding="utf-8"?>
<!-- Generator: Adobe Illustrator 16.0.0, SVG Export Plug-In . SVG Version: 6.00 Build 0)  -->
<!DOCTYPE svg PUBLIC "-//W3C//DTD SVG 1.1//EN" "http://www.w3.org/Graphics/SVG/1.1/DTD/svg11.dtd">
<svg version="1.1" id="Layer_1" xmlns="http://www.w3.org/2000/svg" xmlns:xlink="http://www.w3.org/1999/xlink" x="0px" y="0px"
	 width="581.44px" height="347.76px" viewBox="0 0 581.44 347.76" enable-background="new 0 0 581.44 347.76" xml:space="preserve">
<g>
	<path d="M205.398,43.32c1.257-1.257,1.886-2.905,1.886-4.554c0-1.648-0.629-3.296-1.886-4.554
		c-2.516-2.515-6.593-2.514-9.108,0L177.216,53.29c-1.257,1.258-1.886,2.906-1.886,4.554s0.629,3.296,1.886,4.554
		c1.258,1.257,2.905,1.886,4.554,1.886c1.648,0,3.297-0.629,4.554-1.887L205.398,43.32z"/>
	<path d="M226.101,43.208L186.21,83.103c-1.257,1.258-1.886,2.906-1.886,4.554c0,1.648,0.629,3.296,1.886,4.554
		c1.258,1.257,2.906,1.886,4.554,1.886c1.648,0,3.296-0.629,4.554-1.886l39.891-39.895c1.257-1.258,1.886-2.906,1.886-4.554
		c0-1.648-0.629-3.296-1.886-4.554C232.693,40.693,228.617,40.693,226.101,43.208z"/>
	<path d="M395.279,233.221l-19.074,19.076c-1.258,1.258-1.886,2.906-1.886,4.554c0,1.648,0.629,3.296,1.886,4.554
		c1.258,1.258,2.906,1.887,4.555,1.887s3.296-0.629,4.553-1.887l19.074-19.076c1.259-1.258,1.887-2.905,1.887-4.553
		c0-1.648-0.629-3.297-1.887-4.555C401.871,230.706,397.795,230.707,395.279,233.221z"/>
	<path d="M397.279,207.961c0-1.648-0.629-3.296-1.887-4.554c-2.516-2.515-6.592-2.515-9.107,0.001l-39.891,39.895
		c-1.258,1.258-1.886,2.906-1.886,4.554c0,1.648,0.629,3.296,1.886,4.554c1.258,1.258,2.906,1.886,4.555,1.886
		s3.296-0.629,4.554-1.886l39.891-39.895C396.65,211.258,397.279,209.609,397.279,207.961z"/>
	<path d="M575.012-0.38H432.327H148.628H5.945c-3.557,0-6.185,2.996-6.185,6.553v282.889
		c0,3.557,2.628,6.797,6.185,6.797H112v44.692c0,3.558,3.034,6.828,6.59,6.828h342.941c3.557,0,6.508-3.271,6.508-6.828v-44.692
		h106.973c3.557,0,6.188-3.24,6.188-6.797V6.173C581.199,2.616,578.568-0.38,575.012-0.38z M292.319,12.5h133.4v127.88h-133.4V12.5z
		 M292.319,153.26h133.4V282.98h-133.4V153.26z M155.239,12.5h124.2v127.88h-124.2V12.5z M155.239,153.26h124.2V282.98h-124.2
		V153.26z M12.64,282.98V12.5h129.72v270.48h-23.77H12.64z M455.16,334.5H124.879v-38.641h23.749h283.699h22.833V334.5z
		 M568.319,282.98H461.531H438.6V12.5h129.72V282.98z"/>
	<path d="M468.292,173.5h70.755c3.557,0,6.439-2.883,6.439-6.44c0-3.557-2.883-6.44-6.439-6.44h-70.755
		c-3.558,0-6.44,2.883-6.44,6.44C461.852,170.617,464.734,173.5,468.292,173.5z"/>
	<path d="M468.292,213.061h70.755c3.557,0,6.439-2.884,6.439-6.44c0-3.558-2.883-6.44-6.439-6.44h-70.755
		c-3.558,0-6.44,2.883-6.44,6.44C461.852,210.177,464.734,213.061,468.292,213.061z"/>
	<path d="M468.292,252.62h70.755c3.557,0,6.439-2.884,6.439-6.44s-2.883-6.439-6.439-6.439h-70.755
		c-3.558,0-6.44,2.883-6.44,6.439S464.734,252.62,468.292,252.62z"/>
	<path d="M468.292,55.74h70.755c3.557,0,6.439-2.883,6.439-6.44c0-3.557-2.883-6.44-6.439-6.44h-70.755
		c-3.558,0-6.44,2.883-6.44,6.44C461.852,52.857,464.734,55.74,468.292,55.74z"/>
	<path d="M468.292,95.3h70.755c3.557,0,6.439-2.883,6.439-6.44c0-3.557-2.883-6.44-6.439-6.44h-70.755
		c-3.558,0-6.44,2.883-6.44,6.44C461.852,92.417,464.734,95.3,468.292,95.3z"/>
	<path d="M468.292,133.94h70.755c3.557,0,6.439-2.883,6.439-6.44c0-3.557-2.883-6.44-6.439-6.44h-70.755
		c-3.558,0-6.44,2.883-6.44,6.44C461.852,131.057,464.734,133.94,468.292,133.94z"/>
	<path d="M112.664,160.62H41.91c-3.557,0-6.44,2.883-6.44,6.44c0,3.557,2.883,6.44,6.44,6.44h70.754
		c3.557,0,6.44-2.883,6.44-6.44C119.104,163.503,116.221,160.62,112.664,160.62z"/>
	<path d="M112.664,200.18H41.91c-3.557,0-6.44,2.883-6.44,6.44c0,3.557,2.883,6.44,6.44,6.44h70.754
		c3.557,0,6.44-2.884,6.44-6.44C119.104,203.063,116.221,200.18,112.664,200.18z"/>
	<path d="M112.664,239.74H41.91c-3.557,0-6.44,2.883-6.44,6.439s2.883,6.44,6.44,6.44h70.754
		c3.557,0,6.44-2.884,6.44-6.44S116.221,239.74,112.664,239.74z"/>
	<path d="M112.664,42.86H41.91c-3.557,0-6.44,2.883-6.44,6.44c0,3.557,2.883,6.44,6.44,6.44h70.754
		c3.557,0,6.44-2.883,6.44-6.44C119.104,45.743,116.221,42.86,112.664,42.86z"/>
	<path d="M112.664,82.42H41.91c-3.557,0-6.44,2.883-6.44,6.44c0,3.557,2.883,6.44,6.44,6.44h70.754
		c3.557,0,6.44-2.883,6.44-6.44C119.104,85.303,116.221,82.42,112.664,82.42z"/>
	<path d="M112.664,121.06H41.91c-3.557,0-6.44,2.883-6.44,6.44c0,3.557,2.883,6.44,6.44,6.44h70.754
		c3.557,0,6.44-2.883,6.44-6.44C119.104,123.943,116.221,121.06,112.664,121.06z"/>
</g>
</svg>
