<?xml version="1.0" encoding="utf-8"?>
<!-- Generator: Adobe Illustrator 16.0.0, SVG Export Plug-In . SVG Version: 6.00 Build 0)  -->
<!DOCTYPE svg PUBLIC "-//W3C//DTD SVG 1.1//EN" "http://www.w3.org/Graphics/SVG/1.1/DTD/svg11.dtd">
<svg version="1.1" id="Layer_1" xmlns="http://www.w3.org/2000/svg" xmlns:xlink="http://www.w3.org/1999/xlink" x="0px" y="0px"
	 width="15px" height="15px" viewBox="0 0 15 15" enable-background="new 0 0 15 15" xml:space="preserve">
<path fill="#34A7DF" stroke="#34A7DF" stroke-miterlimit="10" d="M14.5,11.7c0,1.548-1.254,2.8-2.801,2.8H3.3
	c-1.547,0-2.8-1.252-2.8-2.8V3.3c0-1.546,1.253-2.8,2.8-2.8h8.399c1.547,0,2.801,1.254,2.801,2.8V11.7z"/>
<g>
	<path fill="#FFFFFF" d="M11.521,0.867c0.055,0.553,0.084,1.096,0.083,1.626L11.6,3.288c0.005,0.135-0.08,0.232-0.135,0.342
		c-0.054,0.11-0.096,0.226-0.145,0.338l-1.125,2.719l-2.25,5.437l-0.572,1.384l-1.059-1.059l-2.188-2.188L3.854,9.988
		c-0.081-0.102-0.205-0.16-0.288-0.26c-0.124-0.24-0.221-0.508-0.332-0.761C3.018,8.455,2.824,7.919,2.647,7.367
		c0.552,0.177,1.088,0.371,1.6,0.587C4.5,8.066,4.768,8.163,5.009,8.287c0.099,0.082,0.158,0.206,0.259,0.287l0.273,0.273
		l2.188,2.188l-1.631,0.324l2.25-5.437l1.125-2.719C9.518,3.09,9.57,2.979,9.609,2.862c0.039-0.117,0.048-0.246,0.146-0.337
		l0.558-0.565C10.688,1.583,11.092,1.22,11.521,0.867z"/>
</g>
</svg>
