<?xml version="1.0" encoding="utf-8"?>
<!-- Generator: Adobe Illustrator 16.0.0, SVG Export Plug-In . SVG Version: 6.00 Build 0)  -->
<!DOCTYPE svg PUBLIC "-//W3C//DTD SVG 1.1//EN" "http://www.w3.org/Graphics/SVG/1.1/DTD/svg11.dtd">
<svg version="1.1" id="Layer_1" xmlns="http://www.w3.org/2000/svg" xmlns:xlink="http://www.w3.org/1999/xlink" x="0px" y="0px"
	 width="319.13px" height="456.32px" viewBox="0 0 319.13 456.32" enable-background="new 0 0 319.13 456.32" xml:space="preserve">
<g id="_x31_5_1_">
	<path fill="#222222" d="M313.367,134.615c-5.998-8.191-15.285-12.835-25.478-12.835h-41.901V24.404
		c0-13.08-11.087-24.064-24.167-24.064H217.6c-13.275,0-24.051,11.145-24.051,24.42v97.021h-69.921V24.404
		c0-13.08-10.593-24.064-23.673-24.064h-4.438c-13.157,0-23.409,11.047-23.409,24.203v97.237H31.793
		c-10.188,0-19.472,4.645-25.473,12.837c-5.917,8.081-7.588,18.134-4.581,27.629c0.104,0.333,0.237,0.643,0.395,0.954
		l55.563,109.696c4.676,9.219,8.127,19.04,10.26,29.195l12.363,58.938c0.044,0.209,0.098,0.585,0.162,0.789
		c4.101,12.949,16.483,22.161,30.111,22.161h15.796v55.783c0,9.279,7.431,16.896,16.71,16.896h33.629
		c9.2,0,16.821-7.553,16.821-16.752V383.98h15.541c13.463,0,25.309-9.014,29.477-22.176c0.066-0.211,0.122-0.509,0.167-0.725
		l12.277-59.425c2.183-10.53,5.788-20.728,10.713-30.269l55.802-108.168c0.167-0.324,0.307-0.64,0.417-0.986
		C320.947,152.741,319.28,142.689,313.367,134.615z M206.429,24.76c0-6.174,4.997-11.54,11.171-11.54h4.222
		c5.979,0,11.287,5.207,11.287,11.185v97.376h-26.68V24.76z M84.988,24.543c0-6.055,4.475-11.323,10.529-11.323h4.438
		c5.978,0,10.793,5.207,10.793,11.185v97.376h-25.76V24.543z M180.668,439.908c0,2.063-1.878,3.872-3.94,3.872h-33.629
		c-2.141,0-3.83-1.876-3.83-4.017V383.98h41.399V439.908z M305.809,157.826l-55.53,107.633
		c-5.462,10.579-9.459,21.863-11.881,33.542l-12.206,59.209c-2.576,7.739-9.258,12.89-17.102,12.89h-22.118h-54.261h-22.118
		c-7.976,0-15.227-5.383-17.739-12.887l-12.293-58.687c-2.363-11.259-6.191-22.194-11.375-32.418L13.879,157.89
		c-1.557-5.401-0.535-11.053,2.834-15.652c3.547-4.843,9.043-7.577,15.08-7.577h46.304h39.14h82.727h39.14h48.787
		c6.042,0,11.54,2.723,15.087,7.565C306.335,146.812,307.356,152.436,305.809,157.826z"/>
	<path fill="#222222" d="M180.45,230.675l-33.072,16.171l21.132-63.365c1.125-3.375-0.698-7.021-4.071-8.147
		c-3.377-1.125-7.021,0.698-8.147,4.071L130.3,257.338c-0.82,2.462-0.084,5.176,1.868,6.884c1.953,1.709,4.74,2.077,7.07,0.94
		l33.076-16.172l-23.275,69.844c-1.125,3.373,0.699,7.021,4.073,8.145c0.676,0.226,1.362,0.332,2.037,0.332
		c2.696,0,5.209-1.707,6.108-4.405l28.13-84.408c0.82-2.461,0.084-5.175-1.869-6.882
		C185.567,229.906,182.777,229.537,180.45,230.675z"/>
</g>
</svg>
