<?xml version="1.0" encoding="utf-8"?>
<!-- Generator: Adobe Illustrator 16.0.0, SVG Export Plug-In . SVG Version: 6.00 Build 0)  -->
<!DOCTYPE svg PUBLIC "-//W3C//DTD SVG 1.1//EN" "http://www.w3.org/Graphics/SVG/1.1/DTD/svg11.dtd">
<svg version="1.1" id="Layer_1" xmlns="http://www.w3.org/2000/svg" xmlns:xlink="http://www.w3.org/1999/xlink" x="0px" y="0px"
	 width="435.44px" height="504.61px" viewBox="0 0 435.44 504.61" enable-background="new 0 0 435.44 504.61" xml:space="preserve">
<path d="M434.561,291.746c0-73.954-60.16-134.119-134.107-134.119
c-30.527,0-58.695,10.265-81.26,27.511c-5.576-26.918-13.097-54.636-21.835-79.4C180.345,57.521,152.133,0.045,114.356,0.045
c-37.777,0-65.989,57.477-83.003,105.693C12.376,159.519-0.879,227.239-0.879,270.42c0,40.409,11.592,74.641,33.52,98.996
c19.32,21.457,45.869,33.917,75.308,35.496v93.305c0,3.557,2.884,6.439,6.44,6.439s6.439-2.883,6.439-6.439v-93.309
c28.051-1.52,53.469-12.928,72.51-32.578c23.244,30.824,59.451,51.336,100.45,53.354v72.532c0,3.557,2.884,6.439,6.44,6.439
s6.439-2.883,6.439-6.439v-72.501C377.741,422.457,434.561,363.615,434.561,291.746z M120.828,392.016V228.258
c0.011-0.011,0.022-0.019,0.032-0.029l39.728-39.731c1.257-1.258,1.886-2.906,1.886-4.554c0-1.648-0.629-3.296-1.887-4.554
c-2.514-2.515-6.592-2.514-9.107,0l-30.651,30.654v-96.657c0-3.557-2.883-6.44-6.439-6.44s-6.44,2.883-6.44,6.44v187.314
l-38.196-38.2c-2.515-2.514-6.593-2.515-9.107,0c-1.258,1.257-1.887,2.905-1.887,4.554s0.629,3.296,1.886,4.554l46.521,46.524
c0.246,0.246,0.511,0.461,0.784,0.659v73.228c-57.665-3.305-95.946-51.327-95.946-121.6c0-41.882,12.952-107.84,31.498-160.396
c21.774-61.708,47.601-97.099,70.856-97.099c23.255,0,49.081,35.391,70.855,97.099c18.546,52.556,31.499,118.514,31.499,160.396
C216.711,340.666,178.457,388.678,120.828,392.016z M306.668,412.827v-31.687c0.111-0.096,0.224-0.189,0.329-0.295l37.757-37.473
c1.271-1.26,1.904-2.918,1.904-4.576c-0.001-1.639-0.624-3.276-1.869-4.531c-2.508-2.525-6.586-2.541-9.107-0.035l-29.014,28.795
V242.31c0-3.557-2.883-6.44-6.439-6.44s-6.44,2.883-6.44,6.44v62.835l-24.192-24.393c-2.504-2.527-6.581-2.541-9.107-0.038
c-1.27,1.261-1.906,2.917-1.905,4.575c0.001,1.639,0.623,3.277,1.868,4.532l31.643,31.903c0.508,0.513,1.083,0.916,1.694,1.223
v89.842c-37.793-2.059-71.029-21.504-91.835-50.465c18.113-23.723,27.638-55.275,27.638-91.904c0-19.756-2.781-44.654-7.609-70.998
c21.163-18.019,48.565-28.915,78.472-28.915c66.846,0,121.228,54.388,121.228,121.239
C421.681,356.514,370.637,409.581,306.668,412.827z"/>
</svg>
