<?xml version="1.0" encoding="utf-8"?>
<!-- Generator: Adobe Illustrator 16.0.0, SVG Export Plug-In . SVG Version: 6.00 Build 0)  -->
<!DOCTYPE svg PUBLIC "-//W3C//DTD SVG 1.1//EN" "http://www.w3.org/Graphics/SVG/1.1/DTD/svg11.dtd">
<svg version="1.1" id="Layer_1" xmlns="http://www.w3.org/2000/svg" xmlns:xlink="http://www.w3.org/1999/xlink" x="0px" y="0px"
	 width="408.49px" height="446.47px" viewBox="0 0 408.49 446.47" enable-background="new 0 0 408.49 446.47" xml:space="preserve">
<g>
	<path d="M62.768,322.658c-1.896,0-3.695,0.836-4.919,2.283c-4.325,5.118-42.258,50.699-42.258,74.859
		c0,26.016,21.163,47.181,47.177,47.181s47.177-21.165,47.177-47.181c0-24.16-37.933-69.741-42.258-74.859
		C66.463,323.494,64.663,322.658,62.768,322.658z M62.768,434.102c-18.911,0-34.297-15.388-34.297-34.301
		c0-13.153,19.365-41.828,34.298-60.547c14.931,18.712,34.296,47.38,34.296,60.547C97.064,418.714,81.679,434.102,62.768,434.102z"
		/>
	<path d="M402.279,63.578c-3.558,0-6.44,2.883-6.44,6.439v44.942h-78.2v-12.786
		c0-24.136-19.728-43.334-43.863-43.334h-2.137V33.08h31.788c2.879,11.96,13.209,20.044,25.479,20.044
		c14.491,0,26.279-11.689,26.279-26.181c0-14.492-11.788-26.434-26.279-26.434c-12.27,0-22.599,8.65-25.479,19.689h-31.788v-9.139
		c0-3.557-2.883-6.439-6.439-6.439c-3.558,0-6.44,2.883-6.44,6.439v9.139h-32.527c-2.88-11.039-13.21-19.639-25.479-19.639
		c-14.49,0-26.279,11.891-26.279,26.383c0,14.491,11.789,26.13,26.279,26.13c12.27,0,22.6-8.033,25.479-19.993h32.527v25.76h-2.688
		c-24.197,0-44.232,19.249-44.232,43.446v12.674H146.44c-72.886,0-133.903,54.368-141.923,126.581
		c-0.027,0.156-0.224,1.018-1.497,3.958c-3.861,8.926-3.717,19.001,0.396,27.701c3.984,8.425,11.396,14.688,20.335,17.248
		c2.835,0.812,5.942,1.151,9.78,1.151h64.396c4.055,0,7.99-0.925,11.695-2.791c13.781-6.94,20.649-23.204,16.333-38.688
		c-1.379-4.945-1.079-7.517-0.853-7.992C133.219,227.384,148.61,218,165.271,218h230.567v35.488c0,3.557,2.883,6.439,6.44,6.439
		c3.557,0,6.439-2.883,6.439-6.439v-41.471v-90.879V70.018C408.719,66.461,405.836,63.578,402.279,63.578z M328.905,13.643
		c7.389,0,13.399,6.012,13.399,13.401s-6.011,13.402-13.399,13.402s-13.399-6.013-13.399-13.402S321.517,13.643,328.905,13.643z
		 M200.752,40.446c-7.389,0-13.399-6.013-13.399-13.402s6.011-13.401,13.399-13.401s13.4,6.012,13.4,13.401
		S208.141,40.446,200.752,40.446z M224.719,102.286c0-17.096,14.258-30.566,31.353-30.566h17.704
		c17.033,0,30.983,13.421,30.983,30.454v12.786h-80.04V102.286z M103.83,277.322c-1.893,0.953-3.878,1.397-5.902,1.397H33.532
		c-2.605,0-4.587-0.198-6.235-0.67c-5.455-1.563-9.801-5.231-12.236-10.382c-2.038-4.309-2.482-9.188-1.331-13.788h99.879
		C116.137,263.08,112.058,273.179,103.83,277.322z M165.271,205.12c-21.357,0-41.071,11.962-51.452,30.822
		c-0.779,1.416-1.283,3.218-1.553,5.058h-94.72c8.165-64.4,63.23-113.16,128.894-113.16h72.188h92.478h84.732v77.28H165.271z"/>
	<path d="M58.89,373.959c-3.045-1.843-7.003-0.871-8.845,2.17c-0.5,0.824-12.104,20.354-2.109,36.747
		c1.213,1.99,3.332,3.089,5.504,3.089c1.143,0,2.3-0.304,3.346-0.942c3.037-1.851,3.998-5.813,2.146-8.851
		c-5.89-9.662,2.034-23.209,2.14-23.387C62.899,379.746,61.926,375.799,58.89,373.959z"/>
	<path d="M57.993,206.989c-1.042,0-2.1-0.233-3.096-0.727c-3.457-1.713-4.881-5.889-3.18-9.351
		c0.274-0.558,6.887-13.806,22.122-26.961c13.975-12.068,38.241-26.453,74.479-26.453c3.866,0,7,3.134,7,7s-3.134,7-7,7
		c-25.399,0-47.222,7.619-64.86,22.646c-13.281,11.315-19.129,22.848-19.187,22.963C63.046,205.563,60.566,206.989,57.993,206.989z"
		/>
</g>
</svg>
