<?xml version="1.0" encoding="utf-8"?>
<!-- Generator: Adobe Illustrator 16.0.0, SVG Export Plug-In . SVG Version: 6.00 Build 0)  -->
<!DOCTYPE svg PUBLIC "-//W3C//DTD SVG 1.1//EN" "http://www.w3.org/Graphics/SVG/1.1/DTD/svg11.dtd">
<svg version="1.1" id="Layer_1" xmlns="http://www.w3.org/2000/svg" xmlns:xlink="http://www.w3.org/1999/xlink" x="0px" y="0px"
	 width="435.16px" height="431.48px" viewBox="0 0 435.16 431.48" enable-background="new 0 0 435.16 431.48" xml:space="preserve">
<g>
	<path fill="#222222" d="M105.501,105.5c-0.012,0-0.023,0-0.035,0l-53.67-0.263c-0.346-0.002-0.691-0.029-1.033-0.082
		c-10.595-1.634-18.284-10.599-18.284-21.318V56c0-3.866,3.134-7,7-7s7,3.134,7,7v27.837c0,3.615,2.492,6.662,5.987,7.403
		l53.068,0.26c3.866,0.019,6.985,3.168,6.966,7.034C112.481,102.389,109.351,105.5,105.501,105.5z"/>
	<path id="_x31_0_1_" fill="#222222" d="M409.557,59.14h-28.357V45.098c0-24.895-20.654-44.838-45.548-44.838H44.76
		c-24.894,0-45.361,19.943-45.361,44.838v47.241c0,24.895,20.467,45.001,45.361,45.001h290.891
		c24.894,0,45.548-20.106,45.548-45.001V72.02h28.357c6.749,0,12.123,5.477,12.123,11.81v71.284c0,5.599-4.02,10.488-9.639,11.626
		c-0.051,0.011-0.072,0.021-0.124,0.032l-206.776,47.136c-11.506,2.37-19.902,12.548-19.902,24.231V282.7h-9.327
		c-10.302,0-18.272,8.721-18.272,19.023v111.428c0,10.302,7.97,18.589,18.272,18.589h31c10.302,0,18.808-8.287,18.808-18.589
		V301.724c0-10.303-8.506-19.023-18.808-19.023h-8.792v-44.562c0-5.609,4.108-10.498,9.675-11.625
		c0.051-0.01,0.136-0.021,0.188-0.032l206.681-47.135c11.558-2.381,19.896-12.559,19.896-24.233V83.829
		C434.56,70.394,423.408,59.14,409.557,59.14z M367.399,92.192c0,17.821-14.446,32.268-32.267,32.268H44.546
		c-17.82,0-32.267-14.446-32.267-32.268V45.407c0-17.82,14.446-32.268,32.267-32.268h290.587c17.82,0,32.267,14.447,32.267,32.268
		V92.192z M212.839,413.057c0,3.205-2.598,5.804-5.803,5.804h-30.713c-3.205,0-5.803-2.599-5.803-5.804V301.384
		c0-3.205,2.598-5.804,5.803-5.804h30.713c3.205,0,5.803,2.599,5.803,5.804V413.057z"/>
</g>
</svg>
