<?xml version="1.0" encoding="utf-8"?>
<!-- Generator: Adobe Illustrator 16.0.0, SVG Export Plug-In . SVG Version: 6.00 Build 0)  -->
<!DOCTYPE svg PUBLIC "-//W3C//DTD SVG 1.1//EN" "http://www.w3.org/Graphics/SVG/1.1/DTD/svg11.dtd">
<svg version="1.1" id="Layer_1" xmlns="http://www.w3.org/2000/svg" xmlns:xlink="http://www.w3.org/1999/xlink" x="0px" y="0px"
	 width="496.8px" height="234.6px" viewBox="0 0 496.8 234.6" enable-background="new 0 0 496.8 234.6" xml:space="preserve">
<path d="M490.529,146.9h-72.77V79.496c0-3.558-3.285-6.196-6.842-6.196h-75.959V6.311
	c0-3.557-2.508-6.61-6.065-6.61H167.258H6.426c-3.557,0-6.347,3.054-6.347,6.61v73.186v73.988v73.99c0,3.557,2.79,6.825,6.347,6.825
	h160.832h161.635h161.636c3.557,0,6.35-3.269,6.35-6.825v-73.99C496.879,149.928,494.086,146.9,490.529,146.9z M404.879,146.9
	h-75.985H255.84V86.18h73.054h75.985V146.9z M167.258,146.9H93.919V86.18h73.339h75.701V146.9H167.258z M12.959,146.9V86.18h68.08
	V146.9H12.959z M322.08,73.3h-72.799h-75.322V12.58H322.08V73.3z M12.959,12.58h148.12V73.3H87.646H12.959V12.58z M12.959,159.78
	h74.687h73.434v61.64H12.959V159.78z M173.959,159.78h75.322h72.799v61.64H173.959V159.78z M484,221.42H334.959v-61.64h75.959H484
	V221.42z"/>
</svg>
