<?xml version="1.0" encoding="utf-8"?>
<!-- Generator: Adobe Illustrator 16.0.0, SVG Export Plug-In . SVG Version: 6.00 Build 0)  -->
<!DOCTYPE svg PUBLIC "-//W3C//DTD SVG 1.0//EN" "http://www.w3.org/TR/2001/REC-SVG-20010904/DTD/svg10.dtd">
<svg version="1.0" id="Layer_1" xmlns="http://www.w3.org/2000/svg" xmlns:xlink="http://www.w3.org/1999/xlink" x="0px" y="0px" viewBox="0 0 356.8 269.96" enable-background="new 0 0 356.8 269.96" xml:space="preserve">
<g>
	<path d="M6,181.332c12.809,0,18.836,3.355,25.812,7.243c7.376,4.104,15.731,8.757,31.653,8.757c15.926,0,24.281-4.652,31.652-8.757
		c6.977-3.883,13.004-7.243,25.813-7.243c12.808,0,18.832,3.355,25.812,7.243c7.371,4.104,15.727,8.757,31.653,8.757
		c15.925,0,24.281-4.652,31.652-8.757c6.98-3.883,13.008-7.243,25.816-7.243s18.836,3.355,25.816,7.243
		c7.371,4.104,15.727,8.757,31.652,8.757s24.281-4.652,31.652-8.757c6.98-3.883,13.008-7.243,25.816-7.243c3.316,0,6-2.684,6-6
		c0-3.313-2.684-6-6-6c-15.926,0-24.281,4.653-31.652,8.758c-6.98,3.887-13.008,7.242-25.816,7.242
		c-5.945,0-10.418-0.727-14.215-1.89c0-0.035,0.004-0.071,0.004-0.11V33.465c0-11.836,9.633-21.465,21.469-21.465
		c8.234,0,15.844,4.805,19.391,12.243c1.426,2.992,5.008,4.261,7.996,2.836c2.992-1.426,4.262-5.008,2.835-8
		C325.289,7.489,313.426,0,300.59,0c-18.453,0-33.469,15.012-33.469,33.465v37.656h-67.273V33.465
		c0-11.836,9.633-21.465,21.469-21.465c8.23,0,15.84,4.801,19.387,12.235c1.43,2.992,5.012,4.258,8,2.832
		c2.992-1.426,4.258-5.008,2.832-8C246.008,7.485,234.145,0,221.316,0c-18.453,0-33.469,15.012-33.469,33.465
		c0,0,0.035,151.103,0,151.106c-2.73,0.479-5.801,0.761-9.453,0.761c-12.809,0-18.836-3.355-25.817-7.242
		c-7.371-4.104-15.726-8.758-31.648-8.758c-15.926,0-24.282,4.653-31.653,8.758c-6.976,3.887-13.004,7.242-25.812,7.242
		c-12.809,0-18.836-3.355-25.813-7.242c-7.375-4.104-15.726-8.758-31.652-8.758c-3.312,0-6,2.688-6,6
		C0,178.648,2.688,181.332,6,181.332L6,181.332z M267.121,83.125v43.672h-67.273V83.125H267.121z M199.852,138.797h67.273v39.078
		c-7.281-4.05-15.617-8.543-31.262-8.543c-15.926,0-24.281,4.657-31.652,8.758c-1.473,0.821-2.902,1.614-4.359,2.356V138.797z
		 M199.852,138.797"/>
	<path d="M350.801,241.961c-15.926,0-24.281,4.653-31.652,8.758c-6.98,3.887-13.008,7.242-25.816,7.242s-18.836-3.355-25.816-7.242
		c-7.375-4.104-15.727-8.758-31.652-8.758s-24.281,4.653-31.652,8.758c-6.98,3.887-13.008,7.242-25.816,7.242
		c-12.809,0-18.836-3.355-25.817-7.242c-7.371-4.104-15.726-8.758-31.648-8.758c-15.926,0-24.282,4.653-31.653,8.758
		c-6.976,3.887-13.004,7.242-25.812,7.242c-12.809,0-18.836-3.355-25.813-7.242c-7.375-4.104-15.726-8.758-31.652-8.758
		c-3.312,0-6,2.688-6,6c0,3.317,2.688,6,6,6c12.809,0,18.836,3.356,25.812,7.243c7.376,4.104,15.731,8.757,31.653,8.757
		c15.926,0,24.281-4.652,31.652-8.757c6.977-3.883,13.004-7.243,25.813-7.243c12.808,0,18.832,3.356,25.812,7.243
		c7.371,4.104,15.727,8.757,31.653,8.757c15.925,0,24.281-4.652,31.652-8.757c6.98-3.883,13.008-7.243,25.816-7.243
		s18.836,3.356,25.816,7.243c7.371,4.104,15.727,8.757,31.652,8.757s24.281-4.652,31.652-8.757
		c6.98-3.883,13.008-7.243,25.816-7.243c3.316,0,6-2.683,6-6C356.801,244.648,354.117,241.961,350.801,241.961L350.801,241.961z
		 M350.801,241.961"/>
</g>
</svg>
