<?xml version="1.0" encoding="utf-8"?>
<!-- Generator: Adobe Illustrator 16.0.0, SVG Export Plug-In . SVG Version: 6.00 Build 0)  -->
<!DOCTYPE svg PUBLIC "-//W3C//DTD SVG 1.1//EN" "http://www.w3.org/Graphics/SVG/1.1/DTD/svg11.dtd">
<svg version="1.1" id="Layer_1" xmlns="http://www.w3.org/2000/svg" xmlns:xlink="http://www.w3.org/1999/xlink" x="0px" y="0px"
	 width="516.18px" height="456.92px" viewBox="0 0 516.18 456.92" enable-background="new 0 0 516.18 456.92" xml:space="preserve">
<g id="_x31_3">
	<path fill="#222222" d="M119.366,217.967c-1.46,0.001-2.932-0.454-4.19-1.396l-44.038-32.967c-1.827-1.368-2.873-3.541-2.801-5.823
		s1.251-4.386,3.162-5.636l94.667-62c3.231-2.121,7.573-1.214,9.691,2.021s1.213,7.572-2.021,9.69l-86.309,56.527l36.041,26.98
		c3.095,2.316,3.726,6.704,1.409,9.799C123.601,216.998,121.496,217.967,119.366,217.967z"/>
	<path fill="#222222" d="M307.143,277.433c-2.145,0-4.261-0.981-5.634-2.838c-2.299-3.108-1.642-7.491,1.466-9.79l109.294-80.825
		l-36.885-26.817c-3.126-2.273-3.818-6.651-1.545-9.778c2.272-3.127,6.65-3.818,9.778-1.546l44.605,32.432
		c1.803,1.312,2.874,3.404,2.883,5.634s-1.045,4.331-2.838,5.656l-116.969,86.501C310.047,276.986,308.589,277.433,307.143,277.433z
		"/>
	<path id="_x31_3_1_" fill="#222222" d="M515.564,220.313c-0.046-2.09-1.104-4.029-2.838-5.199l-23.645-15.945l23.873-17.654
		c1.682-1.243,2.654-3.227,2.609-5.318c-0.046-2.09-1.104-4.029-2.838-5.199L261.078,1.288c-2.177-1.468-5.024-1.468-7.202,0
		L2.229,170.996c-1.734,1.17-2.792,3.109-2.837,5.199c-0.045,2.092,0.928,4.075,2.609,5.318l23.873,17.654L2.229,215.113
		c-1.734,1.17-2.792,3.109-2.837,5.199c-0.045,2.092,0.928,4.074,2.609,5.318l23.873,17.654L2.229,259.231
		c-1.734,1.17-2.792,3.108-2.837,5.199c-0.045,2.092,0.928,4.074,2.609,5.317L253.648,455.85c1.138,0.842,2.483,1.262,3.829,1.262
		s2.691-0.42,3.829-1.262l251.648-186.102c1.682-1.243,2.654-3.226,2.609-5.317c-0.046-2.091-1.104-4.029-2.838-5.199
		l-23.646-15.946l23.874-17.654C514.637,224.387,515.609,222.404,515.564,220.313z M257.478,14.396l240.489,162.183L257.478,354.427
		L16.989,176.578L257.478,14.396z M497.967,264.813L257.478,442.662L16.989,264.813l19.873-13.402l216.787,160.321
		c1.138,0.842,2.483,1.262,3.829,1.262s2.691-0.42,3.829-1.262l216.787-160.321L497.967,264.813z M257.478,398.545L16.989,220.695
		l19.873-13.401l216.787,160.32c1.138,0.842,2.483,1.263,3.829,1.263s2.691-0.421,3.829-1.263l216.788-160.32l19.872,13.401
		L257.478,398.545z"/>
</g>
</svg>
