<?xml version="1.0" encoding="utf-8"?>
<!-- Generator: Adobe Illustrator 16.0.0, SVG Export Plug-In . SVG Version: 6.00 Build 0)  -->
<!DOCTYPE svg PUBLIC "-//W3C//DTD SVG 1.1//EN" "http://www.w3.org/Graphics/SVG/1.1/DTD/svg11.dtd">
<svg version="1.1" id="Layer_1" xmlns="http://www.w3.org/2000/svg" xmlns:xlink="http://www.w3.org/1999/xlink" x="0px" y="0px"
	 width="528.08px" height="207px" viewBox="0 0 528.08 207" enable-background="new 0 0 528.08 207" xml:space="preserve">
<path id="_x38_" fill="#222222" d="M527.891,156.027c-0.105-0.307-0.254-0.608-0.402-0.904l-26.652-52.761
	c-0.222-1.291-0.832-2.449-1.7-3.355l-48.459-95.97c-1.097-2.17-3.322-3.538-5.753-3.538H83.932c-2.43,0-4.652,1.368-5.748,3.538
	L1.389,155.133c-0.557,1.106-0.898,2.295-0.852,3.46c-0.001,0.031-0.098,0.062-0.098,0.093v41.433c0,3.558,3.068,6.382,6.625,6.382
	h514.915c3.558,0,6.54-2.824,6.54-6.382v-41.433C528.52,157.736,528.259,156.838,527.891,156.027z M286.56,97.02V56.54h176.698
	l20.439,40.48H286.56z M65.598,56.54H273.68v40.48H45.159L65.598,56.54z M139.359,109.9h213.439v42.319H139.359V109.9z
	 M365.68,109.9h124.521l21.367,42.319H365.68V109.9z M456.755,43.66H210.199V12.38h230.762L456.755,43.66z M87.895,12.38h109.425
	v31.28H72.102L87.895,12.38z M38.656,109.9h87.823v42.319H17.288L38.656,109.9z M13.319,193.62V165.1h502.32v28.521H13.319z"/>
</svg>
