<?xml version="1.0" encoding="utf-8"?>
<!-- Generator: Adobe Illustrator 16.0.0, SVG Export Plug-In . SVG Version: 6.00 Build 0)  -->
<!DOCTYPE svg PUBLIC "-//W3C//DTD SVG 1.1//EN" "http://www.w3.org/Graphics/SVG/1.1/DTD/svg11.dtd">
<svg version="1.1" id="Layer_1" xmlns="http://www.w3.org/2000/svg" xmlns:xlink="http://www.w3.org/1999/xlink" x="0px" y="0px"
	 width="492.37px" height="441.8px" viewBox="0 0 492.37 441.8" enable-background="new 0 0 492.37 441.8" xml:space="preserve">
<g id="_x36__1_">
	<path fill="#222222" d="M53.019,350.409l85.56,3.036c0.076,0.002,0.152,0.004,0.229,0.004c1.666,0,3.27-0.646,4.472-1.807
		c1.257-1.213,1.967-2.886,1.967-4.633v-58.696c0-3.526-2.837-6.397-6.363-6.439l-85.56-1.013c-1.751-0.035-3.379,0.649-4.604,1.859
		c-1.224,1.209-1.913,2.859-1.913,4.58v56.672C46.807,347.441,49.553,350.286,53.019,350.409z M132.367,340.336l-29.44-1.044
		v-44.963l29.44,0.349V340.336z M59.687,293.818l30.36,0.358v44.658l-30.36-1.077V293.818z"/>
	<path fill="#222222" d="M329.631,339.568c1.178,1.02,2.678,1.572,4.216,1.572c0.306,0,0.612-0.021,0.919-0.066l47.841-6.9
		c3.168-0.457,5.521-3.172,5.521-6.373V281.34c0-1.818-0.77-3.554-2.119-4.774c-1.35-1.222-3.152-1.813-4.962-1.634l-47.841,4.785
		c-3.291,0.328-5.799,3.1-5.799,6.407V334.7C327.406,336.568,328.219,338.345,329.631,339.568z M340.287,291.952l34.959-3.496
		v33.767l-34.959,5.042V291.952z"/>
	<path fill="#222222" d="M410.598,326.624c1.177,1.017,2.674,1.566,4.209,1.566c0.312,0,0.625-0.022,0.937-0.068l42.32-6.222
		c3.161-0.465,5.503-3.176,5.503-6.371V274.05c0-1.821-0.771-3.556-2.121-4.777c-1.352-1.222-3.158-1.813-4.966-1.63l-42.32,4.276
		c-3.289,0.333-5.792,3.102-5.792,6.407v43.424C408.367,323.622,409.181,325.4,410.598,326.624z M421.246,284.148l29.44-2.975
		v28.793l-29.44,4.328V284.148z"/>
	<path fill="#222222" d="M491.04,197.748L338.559,5.047c-1.197-1.513-3.009-2.368-4.938-2.402L151.312-0.471
		c-0.028,0-0.055,0.166-0.084,0.166c-0.006,0-0.014,0-0.019,0c-0.011,0-0.017,0-0.024,0c-1.528,0-2.936,0.367-4.042,1.26
		c-0.289,0.234-0.559,0.326-0.807,0.609c-0.171,0.196-0.332,0.402-0.479,0.619L1.04,209.061c-0.746,1.065-1.118,2.308-1.144,3.562
		c-0.004,0.097-0.009,0.192-0.009,0.291v210.124c0,2.168,1.069,4.082,2.712,5.249c1.032,0.821,2.317,1.341,3.736,1.398
		l283.394,11.638c0.078,0.004,0.155,0.005,0.232,0.005c0.009,0,0.016,0.003,0.023,0.003c0.057,0,0.113-0.008,0.169-0.01
		c0.169-0.004,0.338-0.01,0.503-0.027c0.044-0.004,0.088-0.014,0.131-0.02c0.184-0.022,0.366-0.051,0.545-0.089
		c0.014-0.003,0.025-0.003,0.038-0.007l195.683-42.908c0.84-0.184,1.424-0.537,2.09-0.996c1.865-1.129,2.944-3.17,2.944-5.508
		V201.959c0-0.038,0.166-0.075,0.165-0.113C492.277,200.386,491.979,198.935,491.04,197.748z M479.207,361.504l-182.16,34.676
		V223.396l182.16-14.689V361.504z M284.167,428.203l-32.2-1.322V321.709c0-3.516-2.82-6.383-6.336-6.439l-62.56-1.012
		c-1.747-0.031-3.391,0.639-4.621,1.85c-1.23,1.21-1.923,2.864-1.923,4.59v103.086l-163.76-6.726V219.297l271.4,4.298V428.203z
		 M239.087,380.739l-6.875-0.671c-3.532-0.342-6.689,2.244-7.035,5.783c-0.021,0.215-0.031,0.428-0.031,0.639
		c0.003,3.273,2.49,6.072,5.815,6.396l8.126,0.793v31.988l-49.68-1.607v-96.818l49.68,0.804V380.739z M297.047,409.29l182.16-34.675
		v12.114l-182.16,40.019V409.29z M330.348,15.387l143.115,180.884l-177.82,14.314l-132.27-198.13L330.348,15.387z M151.061,17.21
		l129.139,193.44l-261.65-4.143L151.061,17.21z"/>
	<path fill="#222222" d="M148.119,110.109c-18.753,0-34.01,15.258-34.01,34.013s15.257,34.013,34.01,34.013
		s34.01-15.258,34.01-34.013S166.872,110.109,148.119,110.109z M148.119,165.255c-11.651,0-21.13-9.48-21.13-21.133
		c0-11.652,9.479-21.132,21.13-21.132s21.13,9.48,21.13,21.132C169.249,155.775,159.77,165.255,148.119,165.255z"/>
	<path fill="#222222" d="M313.305,182.396c1.235,0,2.484-0.355,3.588-1.096c1.85-1.244,2.849-3.28,2.847-5.354
		c-0.001-1.234-0.355-2.481-1.096-3.583l-12.942-19.251c-1.983-2.952-5.985-3.736-8.938-1.752c-1.85,1.244-2.849,3.281-2.848,5.355
		c0.001,1.234,0.356,2.481,1.097,3.583l12.942,19.251C309.197,181.397,311.232,182.396,313.305,182.396z"/>
	<path fill="#222222" d="M224.043,33.589c-1.983-2.952-5.985-3.736-8.938-1.752c-1.851,1.244-2.849,3.281-2.847,5.355
		c0,1.234,0.355,2.481,1.095,3.583l62.723,93.302c1.244,1.85,3.278,2.848,5.351,2.848c1.235,0,2.485-0.355,3.587-1.096
		c1.852-1.244,2.85-3.281,2.848-5.355c0-1.234-0.355-2.481-1.096-3.583L224.043,33.589z"/>
	<path fill="#222222" d="M407.521,173.572c1.257,1.755,3.233,2.689,5.239,2.689c1.298,0,2.61-0.392,3.746-1.206
		c1.756-1.258,2.69-3.237,2.688-5.244c0-1.297-0.393-2.607-1.206-3.742l-16.406-22.891c-2.071-2.891-6.095-3.555-8.985-1.482
		c-1.756,1.258-2.69,3.237-2.689,5.244c0.001,1.298,0.393,2.607,1.206,3.742L407.521,173.572z"/>
	<path fill="#222222" d="M375.028,129.823c1.257,1.755,3.233,2.689,5.239,2.689c1.299,0,2.61-0.392,3.746-1.206
		c1.756-1.258,2.691-3.237,2.689-5.244c-0.001-1.297-0.393-2.607-1.206-3.742l-60.388-84.255c-2.072-2.892-6.096-3.556-8.986-1.483
		c-1.756,1.258-2.689,3.237-2.688,5.244c0.001,1.297,0.393,2.607,1.206,3.741L375.028,129.823z"/>
	<path fill="#222222" d="M294.163,62.148L278.74,39.74c-2.016-2.929-6.025-3.67-8.957-1.653c-1.813,1.248-2.788,3.261-2.789,5.309
		c0,1.259,0.367,2.532,1.136,3.647l15.424,22.408c1.249,1.815,3.263,2.79,5.311,2.79c1.259,0,2.53-0.368,3.646-1.136
		c1.814-1.249,2.789-3.261,2.789-5.309C295.299,64.537,294.932,63.264,294.163,62.148z"/>
	<path fill="#222222" d="M359.492,177.896c1.249,1.815,3.262,2.79,5.311,2.79c1.259,0,2.53-0.368,3.646-1.136
		c1.813-1.249,2.788-3.261,2.789-5.309c0.001-1.259-0.367-2.532-1.136-3.647l-59.797-86.879c-2.016-2.931-6.027-3.671-8.956-1.653
		c-1.813,1.248-2.789,3.261-2.79,5.308c0,1.259,0.368,2.532,1.137,3.647L359.492,177.896z"/>
</g>
</svg>
