<?xml version="1.0" encoding="utf-8"?>
<!-- Generator: Adobe Illustrator 16.0.0, SVG Export Plug-In . SVG Version: 6.00 Build 0)  -->
<!DOCTYPE svg PUBLIC "-//W3C//DTD SVG 1.1//EN" "http://www.w3.org/Graphics/SVG/1.1/DTD/svg11.dtd">
<svg version="1.1" id="Layer_1" xmlns="http://www.w3.org/2000/svg" xmlns:xlink="http://www.w3.org/1999/xlink" x="0px" y="0px"
	 width="440.92px" height="440.96px" viewBox="0 0 440.92 440.96" enable-background="new 0 0 440.92 440.96" xml:space="preserve">
<path id="_x32__1_" fill="#222222" d="M438.732,360.592L295.632,217.479c0,0-0.001-0.001-0.001-0.001l-0.001-0.001l-7.433-7.433
	l88.479-88.486c0.682-0.683,1.202-1.509,1.521-2.419l24.798-70.584c0.906-2.581,0.506-5.451-1.072-7.678
	c-1.586-2.238-4.162-3.574-6.889-3.574c-0.956,0-1.902,0.162-2.812,0.482l-70.577,24.799c-0.91,0.32-1.736,0.84-2.419,1.522
	l-88.478,88.486L79.932,1.759c-1.208-1.208-2.846-1.887-4.554-1.887s-3.346,0.679-4.554,1.887L1.586,71.002
	c-2.514,2.515-2.514,6.592,0,9.107l150.819,150.832l-121.5,121.511c-12.343,12.345-12.343,32.433,0,44.776l12.674,12.676
	c5.979,5.98,13.93,9.273,22.387,9.273s16.407-3.293,22.387-9.273l17.147-17.148c0.001-0.001,0.001-0.002,0.001-0.002
	c0.001-0.001,0.002-0.002,0.002-0.002l104.348-104.357l150.533,150.548c1.209,1.208,2.847,1.886,4.555,1.886
	s3.346-0.678,4.555-1.886l69.236-69.243C441.246,367.184,441.246,363.107,438.732,360.592z M371.898,58.578l10.304,10.305
	l-15.67,44.604l-1.28,1.28L326.02,75.529l1.28-1.28L371.898,58.578z M316.912,84.638l39.232,39.237l-77.055,77.061l-39.232-39.237
	L316.912,84.638z M79.247,400.797c-3.547,3.548-8.263,5.502-13.279,5.502s-9.732-1.954-13.279-5.501l-12.674-12.676
	c-7.323-7.323-7.323-19.239,0-26.563l12.594-12.595l39.234,39.234L79.247,400.797z M100.95,379.092l-39.234-39.234l99.797-99.807
	l39.233,39.236L100.95,379.092z M364.941,425.281L15.248,75.556l60.13-60.136l29.062,29.065L85.914,63.012
	c-1.258,1.258-1.886,2.906-1.886,4.554c0,1.647,0.629,3.296,1.886,4.553c1.258,1.258,2.906,1.886,4.554,1.886
	c1.648,0,3.296-0.629,4.554-1.886l18.525-18.527l26.399,26.401l-33.172,33.175c-1.258,1.258-1.886,2.906-1.886,4.555
	c0,1.648,0.629,3.296,1.886,4.554c1.258,1.257,2.906,1.886,4.554,1.886c1.648,0,3.297-0.629,4.555-1.886l33.171-33.175
	l26.399,26.401l-18.526,18.527c-1.258,1.258-1.886,2.906-1.886,4.555c0,1.647,0.629,3.296,1.886,4.553
	c1.258,1.258,2.906,1.887,4.554,1.887c1.648,0,3.296-0.629,4.554-1.887l18.525-18.526l26.399,26.401l-18.526,18.527
	c-1.258,1.258-1.886,2.906-1.886,4.554c0,1.647,0.629,3.296,1.886,4.553c1.258,1.258,2.905,1.886,4.554,1.886
	c1.648,0,3.296-0.629,4.554-1.886l18.525-18.527l26.398,26.401l-33.171,33.175c-1.257,1.258-1.886,2.907-1.886,4.554
	c0,1.648,0.629,3.296,1.886,4.554c1.258,1.258,2.905,1.887,4.554,1.887s3.297-0.629,4.555-1.887l33.171-33.175l26.398,26.401
	l-18.526,18.527c-1.257,1.258-1.886,2.906-1.886,4.555c0,1.647,0.629,3.295,1.887,4.553s2.905,1.887,4.554,1.887
	s3.296-0.629,4.554-1.887l18.525-18.527l26.398,26.401l-18.526,18.527c-1.257,1.258-1.885,2.906-1.885,4.554
	c0,1.648,0.629,3.297,1.886,4.555c1.258,1.258,2.905,1.886,4.554,1.886s3.297-0.629,4.555-1.886l18.524-18.527l26.399,26.4
	l-33.173,33.176c-1.258,1.258-1.886,2.906-1.886,4.555c0,1.647,0.629,3.295,1.887,4.553s2.904,1.887,4.553,1.887
	s3.297-0.629,4.555-1.887l33.172-33.174l26.397,26.4l-18.525,18.527c-1.257,1.258-1.886,2.906-1.886,4.555s0.629,3.297,1.887,4.554
	s2.905,1.886,4.553,1.886c1.648,0,3.297-0.629,4.555-1.887l18.524-18.527l27.477,27.479L364.941,425.281z"/>
</svg>
