<?xml version="1.0" encoding="utf-8"?>
<!-- Generator: Adobe Illustrator 16.0.0, SVG Export Plug-In . SVG Version: 6.00 Build 0)  -->
<!DOCTYPE svg PUBLIC "-//W3C//DTD SVG 1.1//EN" "http://www.w3.org/Graphics/SVG/1.1/DTD/svg11.dtd">
<svg version="1.1" id="Layer_1" xmlns="http://www.w3.org/2000/svg" xmlns:xlink="http://www.w3.org/1999/xlink" x="0px" y="0px"
	 width="453.68px" height="399.48px" viewBox="0 0 453.68 399.48" enable-background="new 0 0 453.68 399.48" xml:space="preserve">
<g id="_x37__1_">
	<circle fill="#222222" cx="111.292" cy="355.049" r="8.955"/>
	<path fill="#222222" d="M263.056,165.486l36.746-36.75c3.876,8.089,9.142,15.672,15.834,22.366
		c6.353,6.353,13.577,11.505,21.389,15.391l-36.48,36.484l9.107,9.108l40.445-40.45c7.408,2.183,15.167,3.325,23.103,3.325
		c21.811,0,42.336-8.516,57.798-23.977c20.719-20.719,24.275-43.948,23.61-59.787c-0.715-17.036-6.312-29.22-6.55-29.73
		c-0.888-1.904-2.649-3.256-4.719-3.621c-2.069-0.364-4.187,0.303-5.673,1.789l-46.08,46.081l-22.629-8.122l-8.343-22.441
		l46.288-46.287c1.435-1.436,2.109-3.464,1.82-5.473c-0.291-2.009-1.511-3.764-3.294-4.736c-0.576-0.313-14.324-7.683-33.601-7.683
		c-20.594,0-40.012,8.533-56.156,24.676c-21.591,21.591-28.527,52.354-20.846,79.846l-40.878,40.881l2.542,2.542l-77.928-77.935
		l0.561-0.561c0.213-0.163,0.42-0.336,0.611-0.531c0.248-0.251,25.154-25.026,57.803-25.026c10.204,0,20.259,2.44,29.885,7.253
		c0.961,0.48,1.978,0.724,3.023,0.724c2.018,0,3.988-0.976,5.206-2.584c0.847-1.119,1.329-2.577,1.329-3.981
		c0-1.417,0-4.056-8.039-13.28c-3.857-4.427-10.373-11.164-19.507-18.111C234.136,13.25,209.152-0.623,177.004-0.623
		c-16.787,0-33.936,3.798-50.97,11.292c-0.731,0.321-1.396,0.772-1.96,1.337l-4.942,4.936c-0.525,0.29-1.015,0.651-1.447,1.083
		L60.14,75.576c-0.044,0.04-0.092,0.075-0.135,0.117L48.433,86.801c-3.429,3.294-7.474,5.606-12.363,7.068
		C6.543,102.693,1.856,108.933,1.19,114.361c-2.173,17.703,14.688,38.936,22.036,47.243c14.307,16.17,37.766,35.053,56.793,35.053
		c1.088,0,2.163-0.064,3.193-0.19c6.247-0.767,12.116-6.996,20.456-34.904c1.446-4.84,3.888-9.065,7.26-12.559l10.696-11.094
		c0.065-0.06,0.134-0.116,0.197-0.179l1.037-1.038l75.386,75.393L78.577,331.766c-14.928,14.928-14.829,39.317,0.22,54.366
		l1.412,1.411c7.293,7.294,16.925,11.311,27.12,11.311h0.001c10.039,0,19.497-3.928,26.629-11.059l119.989-120.001l119.526,119.537
		c7.331,7.331,17.066,11.368,27.411,11.368c10.421,0,20.241-4.08,27.65-11.49l0.604-0.604c15.168-15.168,15.217-39.803,0.107-54.913
		L263.056,165.486z M324.78,44.757c13.871-13.871,29.7-20.904,47.048-20.904c7.601,0,14.198,1.394,19.02,2.851l-42.264,42.264
		c-1.781,1.781-2.36,4.437-1.482,6.797l10.826,29.122c0.661,1.779,2.074,3.176,3.861,3.817l29.289,10.512
		c2.343,0.842,4.966,0.255,6.729-1.508l41.67-41.669c3.654,14.057,6.467,41.782-17.588,65.837
		c-13.028,13.029-30.32,20.204-48.689,20.204c-18.295,0-35.504-7.133-48.455-20.086C297.946,115.195,297.963,71.574,324.78,44.757z
		 M164.874,76.397l-46.626,46.569c-0.242,0.241-0.456,0.504-0.654,0.776l-0.311,0.311L73.582,80.349l48.656-48.661l43.701,43.705
		l-0.526,0.527C165.227,76.068,165.046,76.226,164.874,76.397z M177.004,12.259c27.42,0,49.066,11.539,62.396,21.218
		c4.521,3.283,8.474,6.615,11.826,9.738c-4.519-0.818-9.088-1.228-13.689-1.228c-29.381,0-52.544,16.482-62.179,24.609l-3.749-3.749
		l-40.075-40.079l0.782-0.782C147.342,15.531,162.37,12.259,177.004,12.259z M101.659,140.061
		c-4.813,4.988-8.289,10.981-10.332,17.813c-5.735,19.196-9.48,24.582-10.625,25.887c-11.436,0.542-31.772-12.544-47.829-30.692
		c-12.064-13.637-19.395-27.678-18.978-36.211c1.893-1.708,9.077-5.632,25.861-10.647c6.901-2.063,12.658-5.374,17.597-10.119
		l7.004-6.722l43.872,43.877L101.659,140.061z M244.841,258.686L124.85,378.688c-4.698,4.699-10.92,7.287-17.521,7.287
		c-6.755,0-13.151-2.678-18.013-7.539l-1.411-1.411c-10.027-10.027-10.126-26.245-0.22-36.152l119.667-119.679l45.687,45.691
		L244.841,258.686z M420.032,377.498l-0.604,0.604c-4.977,4.977-11.562,7.718-18.543,7.718c-6.905,0-13.405-2.697-18.303-7.596
		L131.967,127.585l37.488-37.492L420.139,340.8C430.227,350.889,430.179,367.352,420.032,377.498z"/>
</g>
</svg>
