<?xml version="1.0" encoding="utf-8"?>
<!-- Generator: Adobe Illustrator 16.0.0, SVG Export Plug-In . SVG Version: 6.00 Build 0)  -->
<!DOCTYPE svg PUBLIC "-//W3C//DTD SVG 1.1//EN" "http://www.w3.org/Graphics/SVG/1.1/DTD/svg11.dtd">
<svg version="1.1" id="Layer_1" xmlns="http://www.w3.org/2000/svg" xmlns:xlink="http://www.w3.org/1999/xlink" x="0px" y="0px"
	 width="301.76px" height="489.44px" viewBox="0 0 301.76 489.44" enable-background="new 0 0 301.76 489.44" xml:space="preserve">
<g id="_x31_1_1_">
	<path fill="#222222" d="M302.359,6.22c0-3.557-2.883-6.439-6.439-6.439H7.039C3.482-0.22,0.6,2.663,0.6,6.22V482.78
		c0,3.557,2.883,6.439,6.439,6.439H295.92c3.557,0,6.439-2.883,6.439-6.439V6.22z M289.479,475.42h-276V12.66h276V475.42z"/>
	<path fill="#222222" d="M72.603,277.62h158.419c3.557,0,6.018-2.787,6.018-6.344V87.911c0-3.557-2.461-6.251-6.018-6.251h-23.676
		c-6.125-13.8-22.485-32.78-51.864-32.78c-32.67,0-49.347,23.58-54.75,32.78H72.603c-3.557,0-6.683,2.694-6.683,6.251v183.365
		C65.92,274.833,69.046,277.62,72.603,277.62z M78.8,94.54h25.83c2.532,0,4.839-1.599,5.879-3.907
		c0.534-1.183,13.427-29.015,44.973-29.015c31.563,0,40.99,27.263,41.367,28.395c0.86,2.657,3.334,4.527,6.126,4.527h21.185v170.2
		H78.8V94.54z"/>
	<path fill="#222222" d="M237.039,330.06c0-3.557-2.883-6.439-6.439-6.439H72.359c-3.557,0-6.439,2.883-6.439,6.439v90.16
		c0,3.557,2.883,6.44,6.439,6.44H230.6c3.557,0,6.439-2.884,6.439-6.44V330.06z M78.8,336.5h145.359v77.28H78.8V336.5z"/>
	<circle fill="#222222" cx="259.625" cy="301.223" r="12.164"/>
	<path fill="#222222" d="M101.479,238.5c-3.866,0-7-3.134-7-7v-101c0-3.866,3.134-7,7-7s7,3.134,7,7v101
		C108.479,235.366,105.346,238.5,101.479,238.5z"/>
	<path fill="#222222" d="M101.479,398.5c-3.866,0-7-3.134-7-7v-33c0-3.866,3.134-7,7-7s7,3.134,7,7v33
		C108.479,395.366,105.346,398.5,101.479,398.5z"/>
</g>
</svg>
