<?xml version="1.0" encoding="utf-8"?>
<!-- Generator: Adobe Illustrator 16.0.0, SVG Export Plug-In . SVG Version: 6.00 Build 0)  -->
<!DOCTYPE svg PUBLIC "-//W3C//DTD SVG 1.1//EN" "http://www.w3.org/Graphics/SVG/1.1/DTD/svg11.dtd">
<svg version="1.1" id="Layer_1" xmlns="http://www.w3.org/2000/svg" xmlns:xlink="http://www.w3.org/1999/xlink" x="0px" y="0px"
	 width="462.91px" height="462.9px" viewBox="0 0 462.91 462.9" enable-background="new 0 0 462.91 462.9" xml:space="preserve">
<g id="_x35_">
	<path fill="#222222" d="M380.501,152.519c54.36-30.056,61.751-37.447,64.181-39.875c12.412-12.411,19.252-28.916,19.261-46.472
		c0.007-17.563-6.823-34.069-19.233-46.479C432.289,7.274,415.783,0.435,398.23,0.435c-17.534,0-34.021,6.83-46.424,19.231
		c-2.427,2.426-9.811,9.81-39.866,64.126c-12.698,22.949-33.488,40.966-58.54,50.734c-5.866,2.287-10.233,4.483-13.352,6.763
		l-78.271-78.264c-12.526-12.524-29.16-19.422-46.836-19.422c-21.849,0-42.283,10.727-54.66,28.695L2.167,156.663
		c-1.762,2.559-1.447,6.011,0.75,8.208l296.604,296.577c1.245,1.246,2.896,1.887,4.556,1.887c1.268,0,2.543-0.373,3.651-1.137
		l84.372-58.109c16.265-11.201,26.623-28.906,28.42-48.572s-5.182-38.953-19.146-52.916l-77.854-77.847
		c2.25-3.162,4.41-7.594,6.656-13.547C339.662,186.059,357.535,165.217,380.501,152.519z M304.836,448.549L15.815,159.554
		l24.962-36.238l300.301,300.272L304.836,448.549z M407.693,354.344c-1.447,15.846-9.795,30.111-22.9,39.137l-32.928,22.68
		L48.942,113.265c-0.247-0.247-0.512-0.462-0.786-0.66l22.732-33c9.973-14.478,26.441-23.122,44.053-23.122
		c14.237,0,27.636,5.558,37.729,15.65l239.596,239.574C403.518,322.958,409.141,338.498,407.693,354.344z M258.078,146.526
		c27.85-10.858,50.98-30.923,65.133-56.498c25.385-45.878,34.518-58.07,37.703-61.254c9.969-9.969,23.223-15.459,37.316-15.459
		c14.112,0,27.384,5.5,37.371,15.486c9.977,9.975,15.467,23.245,15.461,37.365c-0.007,14.118-5.507,27.39-15.487,37.37
		c-3.188,3.188-15.392,12.325-61.307,37.712c-25.64,14.176-45.579,37.407-56.144,65.412c-1.581,4.19-2.904,6.948-3.922,8.746
		l-64.837-64.832C251.13,149.535,253.867,148.169,258.078,146.526z"/>
	<path fill="#222222" d="M399.931,88.001c6.286,0,12.196-2.448,16.642-6.892c4.445-4.445,6.893-10.354,6.893-16.641
		c0-6.287-2.447-12.196-6.893-16.64c-4.445-4.445-10.355-6.893-16.642-6.893s-12.196,2.448-16.641,6.892
		c-4.445,4.445-6.894,10.354-6.894,16.641c0,6.286,2.448,12.195,6.893,16.64C387.734,85.553,393.645,88.001,399.931,88.001z
		 M392.396,56.936c2.014-2.012,4.688-3.121,7.534-3.121s5.521,1.108,7.534,3.121c2.012,2.012,3.121,4.687,3.121,7.533
		c0,2.845-1.109,5.521-3.121,7.533c-2.013,2.012-4.688,3.12-7.534,3.12s-5.521-1.108-7.534-3.121
		c-2.012-2.012-3.12-4.687-3.12-7.532C389.276,61.623,390.385,58.947,392.396,56.936z"/>
</g>
</svg>
