<?xml version="1.0" encoding="utf-8"?>
<!-- Generator: Adobe Illustrator 16.0.0, SVG Export Plug-In . SVG Version: 6.00 Build 0)  -->
<!DOCTYPE svg PUBLIC "-//W3C//DTD SVG 1.1//EN" "http://www.w3.org/Graphics/SVG/1.1/DTD/svg11.dtd">
<svg version="1.1" id="Layer_1" xmlns="http://www.w3.org/2000/svg" xmlns:xlink="http://www.w3.org/1999/xlink" x="0px" y="0px"
	 width="486.68px" height="444.84px" viewBox="0 0 486.68 444.84" enable-background="new 0 0 486.68 444.84" xml:space="preserve">
<g id="_x31_6_1_">
	<path fill="#222222" d="M463.79,207.799c12.423,0,22.529-10.106,22.529-22.529v-9.222c0-12.423-10.106-22.528-22.529-22.528h-5.07
		v-9.921c0-21.396-16.969-38.84-38.365-38.84H65.309c-21.395,0-38.989,17.444-38.989,38.84v9.921h-4.15
		c-12.423,0-22.529,10.105-22.529,22.528v9.222c0,12.423,10.106,22.529,22.529,22.529h4.15v140.76h-4.15
		c-12.423,0-22.529,10.107-22.529,22.529v9.222c0,12.423,10.106,22.529,22.529,22.529h4.15v3.356
		c0,21.396,17.595,38.964,38.989,38.964h355.046c21.396,0,38.365-17.567,38.365-38.964v-3.356h5.07
		c12.423,0,22.529-10.106,22.529-22.529v-9.222c0-12.422-10.106-22.529-22.529-22.529h-5.07v-140.76H463.79z M458.72,166.399h5.07
		c5.321,0,9.649,4.328,9.649,9.648v9.222c0,5.32-4.328,9.649-9.649,9.649h-5.07V166.399z M26.319,389.959h-4.15
		c-5.321,0-9.649-4.328-9.649-9.649v-9.222c0-5.32,4.328-9.648,9.649-9.648h4.15V389.959z M26.319,194.919h-4.15
		c-5.321,0-9.649-4.329-9.649-9.649v-9.222c0-5.32,4.328-9.648,9.649-9.648h4.15V194.919z M445.84,406.356
		c0,14.316-11.606,25.923-25.923,25.923H65.122c-14.316,0-25.923-11.606-25.923-25.923V143.562
		c0-14.316,11.606-25.923,25.923-25.923h354.795c14.316,0,25.923,11.606,25.923,25.923V406.356z M463.79,361.439
		c5.321,0,9.649,4.328,9.649,9.648v9.222c0,5.321-4.328,9.649-9.649,9.649h-5.07v-28.52H463.79z"/>
	<path fill="#222222" d="M115.961,152.6H99.518c-6.892,0-12.479,5.586-12.479,12.478v221.604c0,6.892,5.587,12.479,12.479,12.479
		h16.443c6.892,0,12.479-5.587,12.479-12.479V165.077C128.439,158.186,122.853,152.6,115.961,152.6z M115.56,386.279H99.92V165.479
		h15.64V386.279z"/>
	<path fill="#222222" d="M182.201,152.6h-16.443c-6.892,0-12.479,5.586-12.479,12.478v221.604c0,6.892,5.587,12.479,12.479,12.479
		h16.443c6.892,0,12.479-5.587,12.479-12.479V165.077C194.68,158.186,189.093,152.6,182.201,152.6z M182.72,386.279h-16.561V165.479
		h16.561V386.279z"/>
	<path fill="#222222" d="M250.281,152.6h-16.443c-6.892,0-12.479,5.586-12.479,12.478v221.604c0,6.892,5.587,12.479,12.479,12.479
		h16.443c6.892,0,12.479-5.587,12.479-12.479V165.077C262.76,158.186,257.173,152.6,250.281,152.6z M249.88,386.279h-15.641V165.479
		h15.641V386.279z"/>
	<path fill="#222222" d="M317.44,152.6h-16.441c-6.893,0-12.479,5.586-12.479,12.478v221.604c0,6.892,5.587,12.479,12.479,12.479
		h16.441c6.892,0,12.479-5.587,12.479-12.479V165.077C329.92,158.186,324.332,152.6,317.44,152.6z M317.959,386.279h-16.56V165.479
		h16.56V386.279z"/>
	<path fill="#222222" d="M385.521,152.6h-16.443c-6.893,0-12.479,5.586-12.479,12.478v221.604c0,6.892,5.586,12.479,12.479,12.479
		h16.443c6.892,0,12.479-5.587,12.479-12.479V165.077C398,158.186,392.413,152.6,385.521,152.6z M385.119,386.279h-15.64V165.479
		h15.64V386.279z"/>
	<path fill="#222222" d="M237.438,70.955c1.255,1.784,3.249,2.738,5.275,2.738c1.279,0,2.571-0.381,3.697-1.171
		c2.91-2.046,3.611-6.062,1.566-8.972c-8.189-11.653-4.764-16.729,0.422-24.412c5.516-8.172,13.07-19.363-0.676-36.424
		c-2.232-2.771-6.286-3.204-9.056-0.976c-2.771,2.232-3.206,6.287-0.975,9.056c7.78,9.656,5.19,13.494,0.03,21.139
		C231.994,40.421,224.148,52.045,237.438,70.955z"/>
	<path fill="#222222" d="M185.826,70.955c1.254,1.784,3.249,2.738,5.274,2.738c1.28,0,2.571-0.381,3.697-1.171
		c2.91-2.046,3.612-6.062,1.567-8.972c-8.189-11.653-4.764-16.729,0.422-24.412c5.516-8.172,13.069-19.363-0.677-36.424
		c-2.232-2.771-6.286-3.204-9.055-0.976c-2.771,2.232-3.206,6.287-0.976,9.056c7.781,9.656,5.19,13.494,0.031,21.139
		C180.383,40.421,172.537,52.045,185.826,70.955z"/>
	<path fill="#222222" d="M289.051,70.955c1.254,1.784,3.248,2.738,5.274,2.738c1.279,0,2.571-0.381,3.697-1.171
		c2.909-2.046,3.611-6.062,1.566-8.972c-8.188-11.653-4.764-16.729,0.423-24.412c5.516-8.172,13.069-19.363-0.677-36.424
		c-2.232-2.771-6.286-3.204-9.056-0.976c-2.77,2.232-3.205,6.287-0.975,9.056c7.78,9.656,5.19,13.494,0.03,21.139
		C283.606,40.421,275.762,52.045,289.051,70.955z"/>
</g>
</svg>
