<?xml version="1.0" encoding="utf-8"?>
<!-- Generator: Adobe Illustrator 16.0.0, SVG Export Plug-In . SVG Version: 6.00 Build 0)  -->
<!DOCTYPE svg PUBLIC "-//W3C//DTD SVG 1.0//EN" "http://www.w3.org/TR/2001/REC-SVG-20010904/DTD/svg10.dtd">
<svg version="1.0" id="Layer_1" xmlns="http://www.w3.org/2000/svg" xmlns:xlink="http://www.w3.org/1999/xlink" x="0px" y="0px" viewBox="0 0 334 379" enable-background="new 0 0 334 379" xml:space="preserve">
<g>
	<path d="M59.569,63.874h24.984c6.058,0,10.988-4.926,10.988-10.984v-9.902c0-6.059-4.93-10.989-10.988-10.989H59.569
		c-6.059,0-10.985,4.93-10.985,10.989v9.902C48.584,58.948,53.51,63.874,59.569,63.874L59.569,63.874z M58.182,42.988
		c0-0.75,0.637-1.387,1.387-1.387h24.984c0.754,0,1.387,0.637,1.387,1.387v9.902c0,0.75-0.633,1.387-1.387,1.387H59.569
		c-0.75,0-1.387-0.637-1.387-1.387V42.988z M58.182,42.988"/>
	<path d="M212.924,65.956c9.934,0,18.012-8.082,18.012-18.019c0-9.934-8.078-18.016-18.012-18.016
		c-9.938,0-18.023,8.082-18.023,18.016C194.9,57.874,202.986,65.956,212.924,65.956L212.924,65.956z M212.924,39.522
		c4.637,0,8.414,3.773,8.414,8.414c0,4.644-3.777,8.418-8.414,8.418c-4.645,0-8.422-3.774-8.422-8.418
		C204.502,43.296,208.279,39.522,212.924,39.522L212.924,39.522z M212.924,39.522"/>
	<path d="M267.408,65.956c9.93,0,18.012-8.082,18.012-18.019c0-9.934-8.082-18.016-18.012-18.016
		c-9.941,0-18.023,8.082-18.023,18.016C249.385,57.874,257.467,65.956,267.408,65.956L267.408,65.956z M267.408,39.522
		c4.637,0,8.41,3.773,8.41,8.414c0,4.644-3.773,8.418-8.41,8.418c-4.645,0-8.426-3.774-8.426-8.418
		C258.982,43.296,262.764,39.522,267.408,39.522L267.408,39.522z M267.408,39.522"/>
	<path d="M298.295,0.047H35.705c-19.617,0-35.574,15.961-35.574,35.574v307.754c0,19.617,15.961,35.578,35.574,35.578h262.59
		c19.617,0,35.574-15.961,35.574-35.578V35.621C333.869,16.008,317.908,0.047,298.295,0.047L298.295,0.047z M35.705,9.649h262.59
		c14.32,0,25.973,11.652,25.973,25.972v45.981H9.733V35.621C9.733,21.301,21.385,9.649,35.705,9.649L35.705,9.649z M298.295,369.352
		H35.705c-14.32,0-25.972-11.652-25.972-25.977V91.203h314.535v252.172C324.268,357.699,312.615,369.352,298.295,369.352
		L298.295,369.352z M298.295,369.352"/>
	<path d="M261.307,203.12c-9.156-43.665-47.961-76.554-94.309-76.554c-53.129,0-96.355,43.226-96.355,96.355
		c0,9.469,1.379,18.617,3.933,27.266c0.016,0.051,0.028,0.098,0.043,0.148c11.836,39.82,48.77,68.945,92.379,68.945
		c53.133,0,96.359-43.227,96.359-96.359c0-6.555-0.66-12.961-1.918-19.156C261.412,203.546,261.369,203.327,261.307,203.12
		L261.307,203.12z M167.002,136.167c39.566,0,73.035,26.625,83.422,62.903c-1.961-0.117-3.859-0.184-5.715-0.184
		c-29.383,0-47.652,14.617-65.316,28.75c-17.129,13.703-33.309,26.648-59.328,26.648c-10.051,0-22.454-3.008-36.875-8.93
		c-1.918-7.157-2.95-14.676-2.95-22.434C80.24,175.085,119.162,136.167,167.002,136.167L167.002,136.167z M167.002,309.679
		c-35.664,0-66.363-21.629-79.683-52.457c12.378,4.418,23.363,6.66,32.746,6.66c29.386,0,47.656-14.613,65.324-28.75
		c17.129-13.703,33.309-26.645,59.32-26.645c2.512,0,5.125,0.129,7.902,0.375c0.75,4.578,1.148,9.273,1.148,14.059
		C253.76,270.761,214.838,309.679,167.002,309.679L167.002,309.679z M167.002,309.679"/>
</g>
</svg>
