<?xml version="1.0" standalone="no"?>
<!DOCTYPE svg PUBLIC "-//W3C//DTD SVG 1.1//EN" "http://www.w3.org/Graphics/SVG/1.1/DTD/svg11.dtd" >
<svg xmlns="http://www.w3.org/2000/svg" xmlns:xlink="http://www.w3.org/1999/xlink" version="1.1">
<metadata></metadata>
<defs>
<font id="intro_light_italicitalic" horiz-adv-x="1239" >
<font-face units-per-em="2048" ascent="1536" descent="-512" />
<missing-glyph horiz-adv-x="546" />
<glyph horiz-adv-x="0" />
<glyph horiz-adv-x="682" />
<glyph unicode=" "  horiz-adv-x="546" />
<glyph unicode="&#x09;" horiz-adv-x="546" />
<glyph unicode="&#xa0;" horiz-adv-x="546" />
<glyph unicode="!" horiz-adv-x="473" d="M51 35q0 35 22 55.5t58 20.5q26 0 42.5 -14t16.5 -38q0 -31 -27 -53t-59 -22q-53 0 -53 51zM119 262l246 1172h102l-252 -1172h-96z" />
<glyph unicode="&#x22;" horiz-adv-x="636" d="M246 997l92 437h82l-103 -437h-71zM487 997l93 437h82l-105 -437h-70z" />
<glyph unicode="#" horiz-adv-x="1386" d="M61 430l17 76h266l135 377h-258l17 75h270l170 474h88l-168 -474h440l172 474h90l-170 -474h240l-16 -75h-252l-135 -377h243l-16 -76h-254l-154 -430h-94l156 430h-440l-156 -430h-94l157 430h-254zM432 504h447l133 381h-443z" />
<glyph unicode="$" horiz-adv-x="1310" d="M51 375h101q-10 -73 15.5 -130t78 -92t115.5 -55t137 -26l133 624q-69 9 -125 21.5t-111 36t-91.5 55t-59.5 79.5t-23 109q0 88 34.5 162.5t91.5 125.5t132 88.5t153.5 56.5t158.5 24l28 137h92l-28 -139q87 -6 160.5 -29.5t134 -65.5t88.5 -111.5t14 -158.5h-98 q10 67 -15 119.5t-74 84.5t-107 49.5t-122 21.5l-127 -590q194 -29 271 -58q150 -56 172 -180q12 -62 -6 -145q-24 -102 -86.5 -180.5t-149 -124.5t-178.5 -71t-191 -31l-28 -140h-92l28 140q-92 4 -172 30t-143.5 72.5t-94 121.5t-16.5 169zM326 1014q0 -48 20 -86 t49 -60.5t76 -40t85 -25.5t93 -16l123 578q-78 -4 -153.5 -26.5t-142.5 -63t-108.5 -108.5t-41.5 -152zM590 74q59 3 117 15t119 36.5t109.5 59t86 87.5t51.5 117q17 82 0 136.5t-78 85t-105 41.5t-142 27q-19 3 -29 5z" />
<glyph unicode="%" horiz-adv-x="1656" d="M188 1057q0 93 36.5 170.5t96 125t130.5 73.5t143 26q111 0 186.5 -68.5t75.5 -191.5q0 -93 -36.5 -170.5t-95.5 -125t-129.5 -73.5t-141.5 -26q-111 0 -188 68.5t-77 191.5zM276 1071q0 -95 57 -147t140 -52q53 0 105 21t95.5 58.5t70 97t26.5 129.5q0 94 -56 145 t-139 51q-53 0 -105 -20t-95.5 -57t-71 -96t-27.5 -130zM295 -2l1005 1432h101l-1004 -1432h-102zM854 238q0 94 37 171t97 124.5t131 72.5t143 25q108 0 184 -69.5t76 -190.5q0 -94 -36.5 -171t-95.5 -125t-129.5 -74t-142.5 -26q-111 0 -187.5 69.5t-76.5 193.5zM940 250 q0 -94 57 -145.5t140 -51.5q53 0 105 20t96 56.5t71 95.5t27 131q0 94 -54 145.5t-137 53.5q-54 0 -106.5 -19.5t-97.5 -56t-73 -96.5t-28 -133z" />
<glyph unicode="&#x26;" horiz-adv-x="1337" d="M74 342q0 183 104.5 304t298.5 169q-93 32 -131 103t-27 188q12 76 49 136.5t87.5 99t114.5 64t127 36t130 10.5q82 0 150.5 -18.5t121 -56.5t75 -103t6.5 -150h-86q8 71 -10.5 119.5t-61 74t-94 36t-121.5 10.5q-75 0 -144 -17.5t-126.5 -53t-92 -96t-34.5 -138.5 q0 -107 87 -160t240 -53l-18 -86q-61 0 -92 -2q-436 -42 -449 -398q-4 -134 85.5 -212t240.5 -78q193 0 321.5 119.5t169.5 316.5l70 332h248l-17 -82h-157l-54 -252q-54 -249 -211.5 -386.5t-384.5 -137.5q-186 0 -300.5 100.5t-114.5 261.5z" />
<glyph unicode="'" horiz-adv-x="409" d="M246 997l92 437h98l-106 -437h-84z" />
<glyph unicode="(" horiz-adv-x="581" d="M63.5 197q-2.5 181 38.5 381.5t117 381t194 339t261 255.5l33 -71q-122 -89 -226 -235t-173.5 -313t-108.5 -352.5t-40 -353.5t41.5 -316t127.5 -239l-70 -73q-94 98 -143 256.5t-51.5 339.5z" />
<glyph unicode=")" horiz-adv-x="583" d="M-135 -324q117 88 220 232.5t175.5 311t115 351.5t47.5 353t-36.5 317t-128.5 242l64 71q101 -97 151.5 -255.5t50 -339t-45 -381t-124 -381.5t-196 -339.5t-252.5 -256.5z" />
<glyph unicode="*" horiz-adv-x="839" d="M254 1210l37 72l217 -90l49 254h80l-64 -256l258 94l9 -72l-256 -84l127 -213l-68 -45l-121 222l-213 -224l-51 47l213 209z" />
<glyph unicode="+" horiz-adv-x="946" d="M145 707l19 84h307l66 309h84l-66 -309h305l-18 -84h-305l-66 -306h-84l66 306h-308z" />
<glyph unicode="," horiz-adv-x="462" d="M-2 -193l84 168q-41 9 -41 54q0 35 26.5 57.5t63.5 22.5q25 0 43.5 -14.5t18.5 -37.5q0 -14 -7 -28q-2 -3 -9 -19.5t-13 -25.5l-92 -177h-74z" />
<glyph unicode="-" horiz-adv-x="933" d="M154 639l18 88h641l-18 -88h-641z" />
<glyph unicode="." horiz-adv-x="440" d="M41 57q6 30 32.5 49t55.5 19q31 0 49 -17.5t12 -50.5q-7 -33 -32.5 -50t-57.5 -17q-29 0 -47.5 17t-11.5 50z" />
<glyph unicode="/" horiz-adv-x="968" d="M-37 2l998 1432h104l-999 -1432h-103z" />
<glyph unicode="0" horiz-adv-x="1363" d="M131 471l102 487q32 149 127 262.5t227 172.5t281 59q225 0 345.5 -135t72.5 -359l-102 -487q-32 -150 -126.5 -263.5t-225 -172t-277.5 -58.5q-229 0 -350.5 134.5t-73.5 359.5zM221 307q17 -116 107 -175.5t235 -59.5q142 0 263 64t192 181q42 69 69 175l101 446 q23 92 10 176q-17 119 -108 182.5t-234 63.5t-263.5 -65t-193.5 -185q-44 -70 -69 -172l-101 -446q-22 -87 -8 -185z" />
<glyph unicode="1" horiz-adv-x="849" d="M-29 0l19 88h301l268 1262h-264l18 84h365l-287 -1346h303l-18 -88h-705z" />
<glyph unicode="2" horiz-adv-x="1091" d="M-23 0l5 23l792 745q64 57 110 124.5t70 133.5t22 128.5t-29 109.5t-88.5 75.5t-151.5 28.5q-320 0 -381 -293h-88q39 184 161 281t324 98q104 2 179.5 -31t113.5 -90t45.5 -133t-15.5 -157.5t-77.5 -167.5t-134.5 -160q-46 -41 -113 -105.5t-212 -203t-341 -320.5l285 6 h430l-21 -92h-885z" />
<glyph unicode="3" horiz-adv-x="1183" d="M51 369h94q-10 -144 71.5 -221.5t232.5 -77.5q209 0 346 118t137 316q0 161 -114 236t-343 28l8 37l564 538h-730l21 91h903l-6 -25l-576 -549q171 12 272 -81.5t101 -254.5q0 -245 -166 -396t-428 -151q-192 0 -299.5 103.5t-87.5 288.5z" />
<glyph unicode="4" horiz-adv-x="1185" d="M16 336l11 49l999 1049h94l-215 -1010h154l-19 -88h-153l-72 -336h-96l72 336h-775zM174 426h637l86 399l100 459h-4z" />
<glyph unicode="5" horiz-adv-x="1187" d="M74 352h92q0 -280 311 -280q83 0 164 29.5t150.5 84.5t116.5 146t55 203q5 76 -18 133t-65.5 90.5t-104 52t-129 22t-146 -3t-149 -19.5t-142.5 -32l139 656h828l-21 -91h-737l-99 -462q99 29 199.5 38.5t199 -5t175 -54.5t123.5 -119.5t47 -191.5q0 -160 -84.5 -291.5 t-223.5 -204.5t-300 -73q-184 0 -288.5 96t-92.5 276z" />
<glyph unicode="6" horiz-adv-x="1189" d="M41 358q0 192 160 369l626 711h117l-532 -592q123 63 264 63q181 0 297.5 -102t116.5 -275q0 -126 -52.5 -231t-139.5 -173.5t-198.5 -106t-232.5 -37.5q-186 0 -306 99.5t-120 274.5zM141 377q-7 -139 85 -221t239 -82q97 0 188.5 30.5t164 86t119 139.5t52.5 184 q7 142 -85.5 222.5t-244.5 80.5q-131 0 -245 -51.5t-189.5 -153.5t-83.5 -235z" />
<glyph unicode="7" horiz-adv-x="1040" d="M80 0l934 1341h-783l21 93h926l-4 -17l-988 -1417h-106z" />
<glyph unicode="8" horiz-adv-x="1271" d="M68 330q0 90 33.5 168.5t91.5 136t131.5 98t158.5 64.5q-78 32 -125 97.5t-47 154.5q0 93 44 172.5t116 131.5t163 81.5t187 29.5q157 0 261 -81t104 -218q0 -134 -87.5 -229t-224.5 -139q114 -33 182 -117.5t68 -208.5q0 -111 -53 -207t-140.5 -159.5t-198.5 -99.5 t-228 -36q-189 0 -312.5 98t-123.5 263zM170 346q-4 -134 94.5 -210.5t245.5 -76.5q72 0 143 16.5t136.5 50.5t116 81t82 113.5t34.5 142.5q4 136 -95 210.5t-249 74.5q-71 0 -141.5 -16t-136 -49.5t-116 -80.5t-81.5 -113t-33 -143zM403 1059q-4 -106 73.5 -165.5 t195.5 -59.5q72 0 143 21t131 59t98.5 99.5t42.5 135.5q4 106 -75 167.5t-197 61.5q-96 0 -187 -36t-155.5 -110.5t-69.5 -172.5z" />
<glyph unicode="9" horiz-adv-x="1189" d="M158 913q0 126 52.5 231.5t140 174t199 106t232.5 37.5q189 0 307.5 -94.5t118.5 -273.5q0 -204 -166 -377l-622 -717h-115l533 600q-111 -57 -263 -57q-185 0 -301 98.5t-116 271.5zM256 926q-7 -143 86.5 -220t245.5 -77q94 0 185 31t164.5 86.5t120 141.5t50.5 187 q7 144 -85 220.5t-245 76.5q-97 0 -188.5 -30t-164.5 -85t-119 -141t-50 -190z" />
<glyph unicode=":" horiz-adv-x="436" d="M31 43q0 35 26 57.5t62 22.5q27 0 44 -15.5t17 -39.5q0 -34 -27 -57t-63 -23q-26 0 -42.5 15.5t-16.5 39.5zM180 748q0 34 26 56.5t62 22.5q27 0 44.5 -15.5t17.5 -39.5q0 -34 -27 -57t-63 -23q-26 0 -43 16t-17 40z" />
<glyph unicode=";" horiz-adv-x="452" d="M14 -150l68 132q-39 9 -39 49q0 31 24.5 52t57.5 21q24 0 39.5 -13t15.5 -36q0 -12 -4 -24l-20 -41l-76 -140h-66zM193 748q0 34 23 54.5t56 20.5q25 0 41.5 -14.5t16.5 -38.5q0 -30 -26 -52t-58 -22q-24 0 -38.5 14t-14.5 38z" />
<glyph unicode="&#x3c;" horiz-adv-x="1030" d="M113 676l16 76l850 346l-21 -92l-718 -293l591 -310l-20 -90z" />
<glyph unicode="=" horiz-adv-x="1079" d="M127 449l18 83h760l-18 -83h-760zM188 741l19 84h760l-19 -84h-760z" />
<glyph unicode="&#x3e;" horiz-adv-x="1028" d="M98 313l21 95l723 307l-598 286l20 97l703 -346l-15 -76z" />
<glyph unicode="?" horiz-adv-x="1003" d="M190 1096q23 116 100 195.5t176 114t214 34.5q83 0 154 -23.5t123.5 -72.5t67.5 -123.5t-13 -176.5q-20 -67 -57 -123.5t-81 -97.5t-94 -80.5t-98.5 -83.5t-91 -96.5t-75.5 -128.5t-48 -170h-100q22 108 59.5 195.5t82 144.5t94 104t98 85.5t90.5 77t76.5 90.5t50.5 114 q19 62 10 108t-30.5 76.5t-61 49t-83 26.5t-96.5 8q-61 0 -118.5 -12.5t-112 -40t-93.5 -77.5t-52 -117h-91zM297 31q0 31 25.5 51t58.5 20q55 0 55 -51q0 -32 -23.5 -54t-58.5 -22q-25 0 -41 15.5t-16 40.5z" />
<glyph unicode="@" horiz-adv-x="1830" d="M65 219q-10 128 31 285q45 178 139.5 327.5t224.5 256t296.5 166t349.5 59.5q179 0 316.5 -57t217.5 -162t104.5 -253t-22.5 -329q-18 -71 -42.5 -137.5t-63.5 -138t-85 -124t-110 -86.5t-135 -34q-151 0 -92 207l14 53q-72 -120 -200 -190t-260 -70q-86 0 -153.5 27.5 t-108 75t-63.5 112.5t-21 140t20 157q32 129 97 229.5t150 162t182.5 93t201.5 31.5q111 -2 214.5 -45t166.5 -115l-156 -624q-8 -31 -12.5 -51.5t-6 -45t3.5 -38.5t18 -23.5t36 -9.5q60 -2 118 44t100 118.5t72 144.5t46 137q43 166 22 301t-92 230.5t-198.5 147.5 t-297.5 52q-223 0 -411 -95t-315.5 -261t-188.5 -383q-32 -119 -34.5 -224t25 -187t78.5 -145.5t127 -102t168.5 -53.5t205.5 -2.5t237 52.5l-16 -71q-146 -49 -280 -57.5t-241.5 21.5t-191.5 94.5t-129.5 163t-55.5 226.5zM500 327.5q4 -76.5 31.5 -131t88 -84.5t150.5 -30 q163 0 295.5 112.5t177.5 276.5l86 354q-58 54 -133 78t-174 29q-81 0 -158 -27t-145 -79.5t-120.5 -137.5t-78.5 -192q-24 -92 -20 -168.5z" />
<glyph unicode="A" horiz-adv-x="1449" d="M-86 0l2 12l975 1426h47l362 -1426l-2 -12h-100l-106 414h-781l-282 -414h-115zM365 504h710l-190 764z" />
<glyph unicode="B" horiz-adv-x="1363" d="M78 0l305 1434h524q177 0 283 -72.5t106 -224.5q0 -138 -73.5 -249t-216.5 -153q104 -26 159.5 -98t55.5 -176q0 -147 -74.5 -253t-196.5 -157t-276 -51h-596zM201 94h487q88 0 163.5 21t135.5 63.5t94.5 113.5t34.5 163q0 237 -352 237h-436zM346 780h426q422 0 422 342 q0 219 -311 219h-418z" />
<glyph unicode="C" horiz-adv-x="1556" d="M123 571q0 184 73 349.5t195 281.5q123 116 287 184q160 66 332 66h10q136 0 249 -47.5t189.5 -143t95.5 -227.5h-100q-24 157 -151 239.5t-308 82.5q-157 -2 -299 -63.5t-244.5 -164t-162.5 -243t-60 -295.5q0 -112 29 -203.5t87.5 -161t152.5 -107.5t217 -38 q183 0 350 91t268 255h103q-75 -143 -194.5 -244.5t-256 -149.5t-280.5 -48q-264 0 -423 161.5t-159 425.5z" />
<glyph unicode="D" horiz-adv-x="1505" d="M78 0l305 1434h494q133 0 241.5 -45.5t178.5 -124.5q71 -78 107 -182q35 -99 34 -212v-12q-4 -171 -67.5 -326.5t-174 -273.5t-273 -188t-352.5 -70h-493zM203 96h385q154 0 290 60t231.5 161.5t154 237t67.5 285.5q1 20 1 39q0 195 -112 321q-122 138 -366 137h-387z " />
<glyph unicode="E" horiz-adv-x="1161" d="M78 0q191 913 305 1434h827l-20 -91h-725l-117 -557h694q-9 -34 -20 -92h-694q-40 -183 -127 -600h731q-14 -57 -21 -94h-833z" />
<glyph unicode="F" horiz-adv-x="1138" d="M78 0l305 1434h838l-21 -93h-733l-127 -596h680l-19 -94h-679l-140 -651h-104z" />
<glyph unicode="G" horiz-adv-x="1601" d="M123 569q0 184 72.5 349.5t193 282t283 185t336.5 68.5q228 0 370.5 -99.5t173.5 -307.5h-92q-70 315 -473 315q-209 -3 -384 -108t-275.5 -282.5t-100.5 -385.5q0 -110 29 -201.5t86 -160.5t149 -107.5t211 -38.5q256 0 456 156.5t269 410.5h-565l19 90h667 q-45 -217 -139 -360q-122 -189 -308.5 -292t-408.5 -103q-174 0 -304 75.5t-197.5 208.5t-67.5 305z" />
<glyph unicode="H" horiz-adv-x="1476" d="M78 0l305 1434h102l-135 -633h864l136 633h104l-305 -1434h-105l150 705h-864l-150 -705h-102z" />
<glyph unicode="I" horiz-adv-x="770" d="M-63 0l18 84h272l269 1266h-254l18 84h610l-18 -84h-254l-268 -1266h272l-18 -84h-647z" />
<glyph unicode="J" horiz-adv-x="1308" d="M47 483l23 103h100l-23 -103q-14 -63 -14 -116q0 -113 60 -185q88 -108 280 -108q193 0 337.5 109.5t184.5 299.5l183 856h-402l21 95h506l-203 -951q-49 -234 -224 -368.5t-417 -134.5q-233 0 -347 136q-80 94 -80 236q0 61 15 131z" />
<glyph unicode="K" horiz-adv-x="1320" d="M78 0l305 1434h104l-145 -684q138 0 229 9.5t146 37.5q21 10 42 27t37.5 34t37 46.5t32.5 47.5t32.5 55t28.5 51.5t28 54.5l24 48q27 54 53 93.5t57.5 75.5t65 57t77.5 37q42 16 89 16h3q48 0 110 -8l-17 -76q-33 4 -61.5 4t-52.5 -3.5t-45 -11.5t-38.5 -17.5 t-34.5 -25.5t-30.5 -32.5t-29 -40t-28 -46t-28.5 -53.5q-67 -135 -132 -231.5t-149 -155.5l377 -729l-2 -14h-102l-356 698q-86 -39 -383 -39l-140 -659h-104z" />
<glyph unicode="L" horiz-adv-x="1034" d="M78 0l305 1434h104l-284 -1340h712l-20 -94h-817z" />
<glyph unicode="M" horiz-adv-x="1685" d="M78 0l305 1436h35l416 -861l778 861h51l-305 -1436h-105l250 1178l-684 -758h-20l-367 758l-250 -1178h-104z" />
<glyph unicode="N" horiz-adv-x="1521" d="M78 0l305 1436h41l721 -1223l104 537l146 686h104l-305 -1436h-35l-725 1223l-98 -502l-154 -721h-104z" />
<glyph unicode="O" horiz-adv-x="1679" d="M123 569q0 126 34 244t94 214.5t144.5 177.5t183.5 135.5t212.5 85t230.5 30.5q266 0 428 -163.5t162 -428.5q0 -184 -72 -349t-193 -282.5t-288 -186.5t-350 -69q-263 0 -424.5 163.5t-161.5 428.5zM223 588v-25q0 -211 127 -346q135 -143 363 -143q155 0 299 60 t252 162t174.5 246t70.5 304v16q0 217 -129 354q-134 142 -362 142q-155 0 -299 -59t-252 -160.5t-174 -245.5t-70 -305z" />
<glyph unicode="P" horiz-adv-x="1325" d="M78 0l305 1436h555q214 0 320 -133q82 -104 82 -255q0 -43 -7 -90q-29 -209 -196.5 -341t-401.5 -132h-452l-103 -485h-102zM303 582h453q128 0 238.5 57.5t178.5 162.5t68 232q0 143 -82.5 225t-240.5 82h-453z" />
<glyph unicode="Q" horiz-adv-x="1675" d="M123 573q0 184 72 348.5t193.5 282t287.5 186t348 68.5q265 0 426.5 -163.5t161.5 -428.5q0 -190 -81 -359t-226 -300l106 -215l-4 -17h-98l-86 168q-225 -159 -516 -159q-263 0 -423.5 163t-160.5 426zM225 592v-25q0 -212 127 -345q136 -142 363 -142q154 0 297.5 58.5 t252 159t174.5 244.5t70 306v16q0 218 -129 354q-133 140 -362 140q-153 0 -296 -59t-251.5 -160t-175 -244t-70.5 -303z" />
<glyph unicode="R" horiz-adv-x="1355" d="M78 0l305 1434h551q192 0 290.5 -98t98.5 -275q0 -202 -125.5 -334.5t-355.5 -167.5l332 -543l-5 -16h-106l-322 547h-442l-117 -547h-104zM315 637h435q122 0 230.5 50.5t178.5 148t70 219.5q0 137 -76.5 214t-239.5 77h-448z" />
<glyph unicode="S" horiz-adv-x="1318" d="M55 375h92q-3 -21 -3 -41q0 -41 14 -77q21 -53 62 -87t98.5 -57t117 -33t121.5 -10q81 0 161.5 19t154 56.5t127 101t71.5 144.5q8 35 8 65q0 113 -109 168q-73 37 -253 64l-21 3h-1l-1 1h-1h-1h-1h-1h-1l-1 1h-1h-1h-1h-1h-1h-1l-1 1h-1h-2q-55 6 -98 13t-92 19.5 t-85.5 27.5t-72 38t-58 51.5t-36 67.5t-13.5 86q0 92 37.5 169.5t98.5 130t141 89.5t163 53.5t166 16.5q81 0 152 -13t132.5 -41.5t102.5 -71.5q42 -42 60 -106q11 -37 11 -80q0 -30 -5 -63h-90q3 20 3 39q0 40 -13 74q-19 50 -57 82.5t-91.5 53.5t-107.5 29.5t-111 8.5 q-87 0 -170.5 -22t-155 -64t-115.5 -113t-44 -159q0 -43 13.5 -77t39.5 -56t56.5 -37.5t72.5 -25.5t78 -15.5t82 -11.5q28 -3 41 -5q49 -7 88.5 -14t85 -18t80.5 -23.5t71 -31t61 -39.5t46 -49.5t31 -62.5q10 -35 10 -79q0 -41 -12 -88q-24 -102 -88.5 -180.5t-153 -124.5 t-187 -69t-202.5 -23q-82 0 -156.5 13.5t-141.5 44t-113 74.5t-68 112q-14 43 -13 94q0 27 4 57z" />
<glyph unicode="T" horiz-adv-x="1105" d="M188 1339q8 42 21 95h1044q-8 -33 -20 -95h-471l-285 -1339h-102l284 1339h-471z" />
<glyph unicode="U" horiz-adv-x="1445" d="M168 492l201 942h102l-201 -940q-13 -61 -12 -114q0 -118 62 -194q92 -112 288 -112t343.5 113t187.5 307l200 940h101l-201 -942q-49 -237 -223 -373.5t-418 -136.5q-241 0 -360 137q-84 97 -84 244q0 60 14 129z" />
<glyph unicode="V" horiz-adv-x="1347" d="M231 1419l2 15h105l108 -568l132 -682h2l354 586l407 664h115l-2 -15l-891 -1423h-43z" />
<glyph unicode="W" horiz-adv-x="1927" d="M250 1417l4 17h96l51 -576l50 -655l649 1204h53l139 -1202h2l273 551l346 678h108l-4 -13l-735 -1427h-57l-144 1184l-643 -1184h-53z" />
<glyph unicode="X" horiz-adv-x="1236" d="M-102 0l2 14l698 742l-344 663l4 15h104l304 -596h2l563 596h112l-2 -13l-628 -665l383 -744l-2 -12h-105l-338 672h-4l-627 -672h-122z" />
<glyph unicode="Y" horiz-adv-x="1273" d="M225 1421q0 3 1 6.5t1 6.5h105l313 -727h4l621 727h119l-3 -15l-704 -823l-127 -596h-102l127 596z" />
<glyph unicode="Z" horiz-adv-x="1173" d="M-90 0l2 12l786 881l406 450l-377 -4h-463l21 95h1005l-4 -17l-811 -905l-383 -424l555 8h359l-21 -96h-1075z" />
<glyph unicode="[" horiz-adv-x="573" d="M-18 -344l399 1876h311l-18 -82h-217l-363 -1706h217l-18 -88h-311z" />
<glyph unicode="\" horiz-adv-x="933" d="M248 1434h104l387 -1432h-102z" />
<glyph unicode="]" horiz-adv-x="575" d="M-115 -344l19 88h217l362 1706h-217l19 82h311l-399 -1876h-312z" />
<glyph unicode="^" horiz-adv-x="1019" d="M193 866l460 564h74l231 -564h-94l-186 469l-383 -469h-102z" />
<glyph unicode="_" horiz-adv-x="1263" d="M-4 -115l18 88h971l-18 -88h-971z" />
<glyph unicode="`" horiz-adv-x="688" d="M516 1425l2 11l94 41l119 -269v-6h-90z" />
<glyph unicode="a" horiz-adv-x="1208" d="M64 344q0 76 16 160q53 235 229 368.5t418 133.5q187 0 360 -93l-143 -673q-4 -20 -6.5 -30t-5.5 -27t-3 -25t0.5 -20.5t4 -18.5t8.5 -14t14 -11t20.5 -6t27.5 -2.5t36 2.5l-16 -88q-35 -5 -63 -5q-69 0 -97 31q-25 27 -25 81q0 33 9 75l10 49q-78 -120 -192.5 -181.5 t-247.5 -61.5q-87 0 -155 27t-109.5 75t-65.5 113t-24 141zM162 372q0 -6 -1 -12q0 -55 14 -104q15 -54 46.5 -92.5t86 -61t128.5 -22.5q171 0 299 115.5t170 302.5l76 356q-131 70 -276 70q-189 0 -335.5 -113t-191.5 -307q-14 -70 -16 -132z" />
<glyph unicode="b" horiz-adv-x="1175" d="M47 68l301 1417h92l-151 -715q67 104 175.5 170t244.5 66q91 0 166.5 -32t128.5 -97q54 -65 68 -163q5 -31 4 -66q0 -74 -21 -165q-60 -249 -229.5 -378.5t-417.5 -129.5q-182 0 -361 93zM152 121q121 -58 282 -58q193 0 332 111t188 309q21 87 21 157q-1 102 -45 168 q-76 112 -242 112q-87 0 -167 -39.5t-137 -103.5t-96.5 -140t-56.5 -154z" />
<glyph unicode="c" horiz-adv-x="1163" d="M68 397q0 116 39 217t104.5 172.5t149.5 123t175 76t181 24.5q149 0 254.5 -76.5t122.5 -218.5h-97q-22 101 -106 155q-81 52 -189 52h-8q-73 0 -147 -22t-142 -65.5t-121 -103.5t-84.5 -142.5t-31.5 -174.5q0 -161 93.5 -250.5t236.5 -89.5q120 0 238 61t184 174h108 q-52 -106 -143 -181t-191 -108.5t-202 -33.5q-85 0 -160.5 26.5t-135 76.5t-94 129.5t-34.5 178.5z" />
<glyph unicode="d" horiz-adv-x="1220" d="M64 349.5q0 76.5 16 160.5q22 106 70.5 199t118 164.5t165 113t205.5 41.5q134 0 224 -60.5t110 -164.5l151 704h95l-287 -1341q-4 -20 -4 -35q0 -31 17 -43q16 -12 50 -12q20 0 45 4l-14 -80q-35 -5 -63 -5q-69 0 -97 31q-25 27 -25 81q0 33 9 75l10 43 q-77 -119 -191.5 -178t-248.5 -59q-86 0 -154 28t-110 76.5t-67 114.5t-25 142.5zM160 344q8 -78 36.5 -137t87.5 -94t142 -35q166 0 304.5 112.5t174.5 296.5q17 75 18 141v7q1 63 -15 117q-16 58 -50 100t-89.5 66t-129.5 24q-97 0 -178.5 -36.5t-137.5 -99.5t-93 -138 t-56 -162q-15 -63 -15 -121q-1 -21 1 -41z" />
<glyph unicode="e" horiz-adv-x="1099" d="M96 567q61 206 224.5 324.5t375.5 118.5q77 0 145.5 -19t122.5 -59q54 -38 73 -100q9 -28 9 -62q0 -39 -12 -84q-21 -74 -71 -129.5t-115.5 -85.5t-133 -44.5t-136.5 -14.5q-119 0 -228 28.5t-170 89.5q-28 -90 -28 -164q0 -100 52 -170q90 -120 312 -120q189 0 358 69 l-20 -94q-172 -67 -350 -67q-270 0 -380 156q-63 89 -64 216q0 95 36 211zM211 618q50 -58 156.5 -87t218.5 -29q53 0 103 8.5t101 28t90 58.5t56 93q10 31 10 57q0 16 -4 31q-10 38 -34.5 65t-63 44t-81 25t-87.5 8q-159 0 -281 -76.5t-184 -225.5z" />
<glyph unicode="f" horiz-adv-x="772" d="M-227 -510l20 80q39 -7 72.5 -7.5t60 4t49.5 17t40.5 27t33 38t27 46.5t22 55.5t18.5 62.5t17 70l217 1022h-254l17 82h254l39 178q28 127 92.5 209.5t147.5 112.5q66 24 138 24q19 0 39 -2q93 -8 187 -53l-37 -80q-57 27 -113 40q-39 8 -77 8q-19 0 -37 -2 q-58 -6 -104.5 -33t-83.5 -84.5t-54 -141.5l-37 -176h379l-17 -82h-380l-218 -1022q-15 -74 -34.5 -132.5t-47 -109.5t-62.5 -83t-81.5 -54.5t-103.5 -23.5h-10q-53 0 -119 10z" />
<glyph unicode="g" horiz-adv-x="1177" d="M-45 -428l39 78q78 -51 172 -78q74 -20 150 -20q21 0 43 2q98 7 184 46t152 126t93 211l62 284q-144 -246 -430 -246q-169 0 -264 103q-90 98 -90 279v16q5 196 95.5 341.5t237 218.5t328.5 73q187 0 360 -93l-206 -976q-32 -144 -104.5 -247.5t-168.5 -155t-208 -65.5 q-37 -5 -75 -5q-75 0 -151 18q-114 28 -219 90zM166 393q-1 -14 -1 -28q0 -141 65 -217q71 -85 212 -85q87 0 167 38.5t138 101.5t99 139.5t57 155.5l76 352q-131 70 -279 70q-225 0 -373.5 -142.5t-160.5 -384.5z" />
<glyph unicode="h" horiz-adv-x="1196" d="M39 0l317 1497h99l-140 -661q72 92 179.5 135t214.5 43q198 0 278 -112q52 -73 52 -184q0 -59 -15 -130l-84 -391q-9 -38 -9 -64q-1 -30 11 -44q12 -15 45 -16q27 0 68 11l-15 -82q-47 -9 -84 -9q-66 0 -96 30q-29 29 -30 89q0 35 10 81l84 397q14 66 14 119 q0 86 -37 136q-60 81 -227 81q-153 0 -266.5 -95.5t-145.5 -248.5l-123 -582h-100z" />
<glyph unicode="i" horiz-adv-x="438" d="M45 0l209 981h96l-209 -981h-96zM307 1321q0 36 25.5 56t58.5 20q51 0 51 -49q0 -36 -23 -57t-54 -21q-25 0 -41.5 13t-16.5 38z" />
<glyph unicode="j" horiz-adv-x="438" d="M-340 -510l21 80q39 -7 72 -7.5t60 4t50 17t40.5 27t33 38t26.5 46.5t21.5 55.5t18.5 62.5t17 70l234 1100h98l-233 -1100q-15 -74 -34.5 -132.5t-47.5 -109.5t-63 -83t-81.5 -54.5t-103.5 -23.5h-10q-53 0 -119 10zM299 1321q0 36 25.5 56t58.5 20q23 0 38 -15.5 t15 -40.5q0 -36 -23.5 -53.5t-56.5 -17.5q-25 0 -41 13t-16 38z" />
<glyph unicode="k" horiz-adv-x="1060" d="M39 0l317 1497h99l-199 -938h164q442 0 530 430h94q-78 -380 -407 -479l250 -500l-2 -10h-94l-238 489q-94 -16 -154 -16h-161l-101 -473h-98z" />
<glyph unicode="l" horiz-adv-x="522" d="M91 140q-3 26 -3 55q0 75 21 176l239 1130h101l-240 -1128q-9 -44 -14 -75t-7 -65t1.5 -56.5t12.5 -44t26.5 -33t43.5 -19.5t63 -7t85 9l-14 -84q-55 -8 -101 -8q-77 0 -125 23q-76 37 -89 127z" />
<glyph unicode="m" horiz-adv-x="1843" d="M76 0l147 690q26 122 26 163v8q-3 49 -52 57q-12 2 -28.5 2t-37.5 -2l16 73q41 8 73 7q68 0 96 -34q26 -32 26 -87q0 -34 -10 -78q144 209 409 209q242 0 252 -240q68 119 179 179.5t253 60.5q74 0 127.5 -22.5t82.5 -60t42 -91.5q11 -44 11 -91q0 -11 -1 -23 q-3 -60 -18 -128l-74 -350q-18 -78 -18 -112q0 -8 1 -13q9 -44 74 -44q11 0 25 1q13 2 27 4l-16 -78q-49 -9 -86 -9q-74 1 -100 37q-22 31 -23 89q0 46 14 110l76 365q13 66 17 112q1 16 1 30q0 30 -5 60q-7 44 -29.5 70t-66 42t-108.5 16q-148 0 -251 -95t-136 -249 l-123 -578h-98l123 578q15 72 15 128q0 214 -212 214q-152 0 -259 -93.5t-140 -248.5l-123 -578h-98z" />
<glyph unicode="n" horiz-adv-x="1214" d="M68 0l151 713q25 124 25 150q0 52 -42 62q-14 3 -34 3q-17 0 -37 -2l14 67q40 9 71 9q58 0 88 -32q28 -31 29 -89q0 -33 -9 -74q142 201 413 201q183 0 267 -116q57 -80 57 -191q0 -50 -12 -107l-82 -379q-13 -47 -13 -78q0 -27 10 -43q14 -23 58 -23q21 0 49 5l-16 -78 q-42 -7 -75 -7q-71 -1 -101 33q-25 29 -25 87q0 40 12 94l84 389q11 51 11 94q1 86 -43 146q-66 90 -222 90q-146 0 -259.5 -93.5t-145.5 -244.5l-125 -586h-98z" />
<glyph unicode="o" d="M68 395q0 116 38 216.5t102 172t147 123t173.5 76.5t180.5 25q85 0 160.5 -26.5t135 -76.5t94 -129.5t34.5 -177.5q0 -116 -38 -217t-102 -172t-146.5 -122.5t-172.5 -76t-180 -24.5q-86 0 -162.5 26.5t-135.5 76.5t-93.5 129t-34.5 177zM164 412v-20q0 -93 42 -164 q47 -78 122.5 -115t167.5 -37t183.5 33.5t169 94.5t127.5 159.5t54 216.5v13q0 151 -90 236q-94 89 -240 89q-93 0 -185 -33t-169.5 -94.5t-127.5 -160.5t-54 -218z" />
<glyph unicode="p" horiz-adv-x="1220" d="M-41 -504l268 1260q17 70 17 109v9q-2 40 -24 52q-16 8 -50 8q-15 0 -33 -2l13 72q35 5 63 5q71 0 99 -31q25 -28 25 -82q0 -33 -9 -75l-11 -49q71 117 189 180.5t254 63.5q172 0 263 -113t91 -287q0 -94 -24.5 -186t-73.5 -174t-117 -145t-161.5 -99.5t-200.5 -36.5 q-137 0 -219.5 53t-116.5 177l-152 -709h-90zM252 401q-1 -16 -1 -31q0 -76 21 -138q25 -75 88 -123t158 -48q112 0 206.5 47.5t155 125t95.5 171.5t39 191v20q0 132 -62 217q-66 91 -211 91q-139 0 -250 -71.5t-172.5 -190t-66.5 -261.5z" />
<glyph unicode="q" horiz-adv-x="1179" d="M68 375q0 146 53.5 267t144.5 199.5t210.5 121.5t252.5 43q190 0 363 -93l-301 -1417h-91l156 731q-71 -126 -181 -189t-249 -63q-173 0 -265.5 102.5t-92.5 297.5zM170 383q0 -159 65 -240.5t209 -81.5q87 0 167.5 39t138.5 102t98.5 140t56.5 156l76 352 q-131 70 -276 70q-230 0 -382.5 -148t-152.5 -389z" />
<glyph unicode="r" horiz-adv-x="864" d="M68 0l161 760q4 19 5.5 28t4.5 25t2.5 23t-0.5 19.5t-4 17.5t-9 12.5t-13.5 10.5t-20 5.5t-27 2t-34.5 -2.5l12 84q42 7 74 7q55 0 83 -20q34 -25 34 -84q0 -15 -2 -32q62 83 156 120q82 33 166 33q11 0 22 -1q144 -3 235 -78l-53 -86q-84 69 -211 69q-116 0 -220 -76.5 t-128 -197.5l-135 -639h-98z" />
<glyph unicode="s" horiz-adv-x="1038" d="M20 268h97q-1 -11 -1 -21q0 -55 36 -96q42 -49 109.5 -70.5t150.5 -21.5q85 0 161.5 21.5t134.5 70t74 115.5q5 21 5 39q1 23 -7 41q-14 34 -35 53t-68.5 33.5t-73.5 18.5t-80 11q-16 2 -23 3q-63 8 -105.5 16t-95.5 24.5t-84.5 38.5t-53.5 58.5t-22 83.5q0 67 27 121.5 t72.5 91t106.5 61t126 35.5t135 11q105 0 188 -28t129 -89q33 -43 33 -97q0 -22 -6 -47h-90q3 15 3 28q-1 67 -67 105q-80 46 -206 46q-81 0 -154 -19.5t-130 -65.5t-68 -112q-7 -33 -0.5 -59t27.5 -43.5t43.5 -29t59 -19.5t60.5 -11.5t62 -8.5q28 -3 40 -5q36 -4 66 -9 t63.5 -12.5t60 -17.5t53.5 -23t45 -29.5t35 -37.5t23 -46q6 -26 8 -56q0 -6 1 -12q0 -25 -8 -54q-21 -94 -95.5 -158.5t-173.5 -91.5t-217 -27q-81 0 -149 16.5t-122 50.5q-54 32 -81 90q-21 44 -21 100q0 17 2 34z" />
<glyph unicode="t" horiz-adv-x="811" d="M104 909l17 76h225l72 303h90l-64 -303h383l-18 -82h-383l-113 -532q-17 -81 -17 -140q0 -106 55 -141q36 -23 98 -23q87 0 227 46l-4 -86q-145 -45 -247 -45q-27 0 -49 3q-114 15 -156 111q-22 51 -23 124q0 66 18 149l113 534z" />
<glyph unicode="u" horiz-adv-x="1173" d="M109 387l127 600h98l-127 -600q-12 -54 -12 -99q0 -88 47 -140q70 -78 219 -78q147 0 250 89.5t135 243.5l125 584h96l-156 -735q-18 -78 -18 -121q-1 -24 5 -36q11 -24 53 -24q20 0 46 5l-14 -80q-46 -7 -80 -7q-57 -1 -81 19q-23 19 -22 69q0 32 9 77 q-92 -99 -180 -138t-211 -39q-182 1 -266 115q-56 77 -56 185q0 51 13 110z" />
<glyph unicode="v" horiz-adv-x="1148" d="M102 924l17 75q43 7 76 8q70 1 99 -33q24 -28 24 -84q0 -41 -13 -97l-80 -390q-10 -44 -10 -84q0 -87 49 -151q71 -94 213 -94q103 0 183.5 34t130.5 90t83.5 134.5t47.5 159.5q14 80 16 174q1 29 1 57q1 61 -3 113q-6 76 -18 155h96q13 -89 19 -175q3 -49 3 -102 q0 -40 -2 -84q-4 -102 -23 -189.5t-61.5 -171.5t-105 -143.5t-161 -96.5t-224.5 -39q-191 6 -282 116q-63 76 -63 188q0 51 13 109l80 381q11 51 11 85q0 35 -28 49q-18 9 -49 9q-17 0 -39 -3z" />
<glyph unicode="w" horiz-adv-x="1753" d="M104 926l17 73q43 7 76 8q69 1 99 -33q25 -28 25 -86q0 -40 -12 -95l-84 -398q-11 -52 -11 -97q0 -84 40 -139q60 -85 192 -85q135 0 232 89t125 232l127 592h94l-127 -592q-11 -46 -11 -87q0 -82 43 -143q64 -91 197 -91q92 0 163.5 36t116 94.5t73.5 138.5t41 163.5 t14 175.5v33q0 72 -6 133q-6 75 -17 143h95q12 -79 18 -157q6 -67 6 -151v-27q-1 -100 -14.5 -186.5t-47.5 -174t-87 -150.5t-139.5 -104.5t-198.5 -46.5h-20q-114 0 -198 54q-91 58 -108 169q-56 -104 -162.5 -165.5t-232.5 -61.5q-174 2 -254 109q-53 71 -53 176 q0 54 14 118l84 395q10 45 10 77v6q-1 35 -30 49q-19 9 -50 9q-18 0 -39 -3z" />
<glyph unicode="x" horiz-adv-x="956" d="M-92 0l2 10l506 514l-244 453l2 10h92l209 -395h4l383 395h107l-2 -10l-447 -457l275 -510l-2 -10h-93l-239 451h-4l-443 -451h-106z" />
<glyph unicode="y" d="M10 -430l31 88q77 -49 171 -76q85 -26 176 -26h17q100 3 188 37t155.5 118t93.5 209l61 283q-149 -228 -422 -228q-203 0 -293 123q-56 77 -56 202q0 74 20 165l63 303q11 55 11 90t-28 48q-16 6 -41 6q-23 0 -53 -5q3 11 8.5 39t8.5 39q45 8 80 8q71 0 99 -33 q25 -30 25 -91q0 -39 -10 -91l-65 -313q-18 -89 -18 -157q0 -96 36 -151q62 -94 246 -94q90 0 170 41t135.5 109t93 147t54.5 162l98 465h96l-227 -1067q-25 -120 -83 -212t-134.5 -145t-168.5 -79q-80 -24 -163 -24h-21q-94 4 -185.5 32t-168.5 78z" />
<glyph unicode="z" horiz-adv-x="927" d="M-74 0l2 14l836 887h-596l16 86h756l-2 -18l-821 -877h628l-20 -92h-799z" />
<glyph unicode="{" horiz-adv-x="573" d="M47 -166.5q1 40.5 12 94.5l88 414q8 41 11 70.5t0.5 68t-23 62.5t-57.5 30l16 76q38 6 68.5 30.5t50 61t31 71t18.5 71.5l86 403q16 79 44.5 131t73.5 81t99.5 40.5t130.5 11.5l-16 -77q-107 0 -161 -41.5t-77 -147.5l-88 -410q-9 -50 -28 -98.5t-56.5 -96t-85.5 -67.5 q41 -20 59 -67t16 -95.5t-15 -101.5l-88 -418q-8 -42 -10 -71.5t5 -50t18 -32.5t33 -19t46.5 -9t62.5 -2l-16 -84q-52 0 -90.5 5t-70 16.5t-50 31t-28.5 49t-9 70z" />
<glyph unicode="|" horiz-adv-x="460" d="M27 -156q22 94 169.5 795t168.5 791h90l-338 -1586h-90z" />
<glyph unicode="}" horiz-adv-x="567" d="M-115 -338l19 84q107 -2 159.5 38t75.5 146l88 418q11 43 22 76.5t31 73.5t50 69.5t69 44.5q-40 20 -57 68t-15.5 95t13.5 99l86 410q23 107 -13 148t-143 41l17 77q51 0 89 -5t69 -16.5t49.5 -31t29 -48.5t10 -69.5t-11.5 -93.5l-86 -403q-5 -27 -7 -40t-5.5 -40.5 t-2.5 -43t4.5 -38t12 -35t23.5 -23.5t37 -14l-15 -76q-119 -18 -161 -231l-89 -414q-32 -155 -112 -210.5t-236 -55.5z" />
<glyph unicode="~" horiz-adv-x="1241" d="M154 653q52 78 119.5 123.5t137 55t138.5 -10.5t129 -67q243 -197 401 49q13 -8 32.5 -17.5t29.5 -15.5q-56 -88 -121 -135.5t-131 -53t-130.5 17t-129.5 71.5q-50 37 -101 56t-105.5 19t-109.5 -31.5t-102 -95.5z" />
<glyph unicode="&#xa1;" horiz-adv-x="436" d="M-59 -461l254 1172h100l-244 -1172h-110zM223 924q0 31 27 53t59 22q53 0 53 -51q0 -35 -22.5 -55.5t-58.5 -20.5q-24 0 -41 14t-17 38z" />
<glyph unicode="&#xa2;" horiz-adv-x="1230" d="M102 397q0 95 26 180.5t71.5 150.5t106 119.5t129.5 87.5t143.5 55t146.5 21t139 -14l84 154h56l-93 -166q91 -33 148 -103t69 -171l-94 -11q-26 142 -172 197l-448 -807q55 -18 117 -19.5t125 14.5t121.5 46.5t109.5 81.5t86 115l92 -9q-41 -83 -104 -148.5t-135.5 -106 t-152 -62t-157.5 -20.5t-147 24l-95 -166h-55l103 185q-101 44 -160.5 140t-59.5 232zM203 414q0 -107 46 -185t122 -116l446 798q-55 8 -114 7.5t-119 -19t-115.5 -46t-104 -72t-84.5 -97.5t-56.5 -122.5t-20.5 -147.5z" />
<glyph unicode="&#xa3;" horiz-adv-x="1341" d="M-4 0l2 12q118 96 184.5 186t104.5 224q21 94 24 266h-186l18 84h176q9 152 54 276t124 214.5t197.5 140t266.5 49.5q229 0 358 -135l-57 -76q-55 61 -139 91t-179 28q-255 -4 -377 -147.5t-147 -440.5h520l-18 -84h-508q-3 -207 -56 -336q-19 -46 -31.5 -71.5 t-37.5 -62.5t-60 -75q62 23 129 23.5t130 -14.5t122 -34t126 -34.5t122 -15.5q91 0 146 52t83 183h87q-30 -169 -109.5 -246t-210.5 -77q-56 0 -141 19t-162 38t-159 31t-159 -3.5t-135 -64.5h-102z" />
<glyph unicode="&#xa4;" horiz-adv-x="1091" d="M86 352l150 123q-37 63 -37 158q0 150 125 278l-93 121l72 60l90 -119q125 76 250 76q120 0 209 -80l149 123l48 -60l-148 -121q31 -67 31 -151q0 -153 -127 -283l98 -125l-72 -59l-98 125q-116 -72 -241 -72q-123 0 -207 72l-152 -125zM276 643q-4 -102 61 -158.5 t163 -56.5q60 0 120 21.5t110.5 60.5t83 102t36.5 138q4 100 -58.5 157.5t-156.5 57.5q-62 0 -122.5 -21t-113 -59.5t-86 -101.5t-37.5 -140z" />
<glyph unicode="&#xa5;" horiz-adv-x="1093" d="M141 344l19 84h295l26 129h-295l19 84h270l-225 780q0 3 1 6.5t1 6.5h113l200 -736l514 736h109q0 -3 -1 -6.5t-1 -6.5l-559 -780h270l-18 -84h-293l-27 -129h293l-18 -84h-293l-74 -344h-105l74 344h-295z" />
<glyph unicode="&#xa6;" horiz-adv-x="466" d="M59 -20q37 194 134 622h90l-133 -622h-91zM238 815q47 249 129 615h90l-129 -615h-90z" />
<glyph unicode="&#xa7;" horiz-adv-x="1306" d="M-6 25h100q-12 -70 22.5 -123t98 -80.5t133.5 -40t139 -10.5t139.5 16.5t143 42.5t125.5 80t68 119q9 37 5 67.5t-17.5 54.5t-36 42.5t-50.5 32.5t-61.5 23.5t-68.5 16.5t-71 11.5t-70.5 8t-66.5 5.5q-35 3 -51 4q-62 7 -111 19.5t-94.5 35.5t-73 54.5t-40 80.5t-2.5 111 q16 110 99.5 183.5t201.5 109.5q-84 25 -133.5 77.5t-49.5 133.5q0 94 52.5 169t136.5 119.5t180.5 67.5t194.5 23q64 2 128 -7.5t124.5 -34t104 -60.5t65 -92t10.5 -124h-92q10 65 -21.5 113.5t-89 74.5t-119.5 38t-125 12q-78 0 -153.5 -16.5t-142.5 -49t-108.5 -90 t-41.5 -131.5q0 -30 10.5 -54t25.5 -40.5t44 -30.5t53 -22.5t66.5 -16.5t70 -12t78.5 -10q47 -5 77.5 -8.5t76 -10.5t72.5 -13.5t66.5 -18t58.5 -24.5t49 -31.5t37.5 -40t24 -50t8.5 -61.5t-9 -74q-24 -99 -102 -174.5t-183 -114.5q100 -37 143.5 -99.5t20.5 -176.5 q-16 -71 -62 -129.5t-107.5 -96.5t-137 -64t-146.5 -38t-141 -14t-139.5 8t-136.5 35t-115 63t-72 98t-12 134zM256 565q0 -49 19 -83.5t57 -54t78.5 -29.5t99.5 -17q205 -21 287 -41q100 27 181.5 96t100.5 160q28 130 -90 184q-70 33 -257 55q-3 0 -42 5q-13 2 -58 6.5 t-69 9.5q-57 -13 -109 -36.5t-97.5 -58.5t-73 -86t-27.5 -110z" />
<glyph unicode="&#xa8;" horiz-adv-x="1048" d="M567 1370q0 35 24 56.5t60 21.5q26 0 42 -15t16 -40q0 -30 -25.5 -53t-58.5 -23q-28 0 -43 14.5t-15 38.5zM1016 1370q0 35 24 56.5t60 21.5q25 0 41 -15t16 -40q0 -30 -25.5 -53t-58.5 -23q-28 0 -42.5 14.5t-14.5 38.5z" />
<glyph unicode="&#xa9;" horiz-adv-x="1640" d="M137 569q0 160 52 298t138.5 235t199.5 166.5t235 103t244 33.5q112 0 210.5 -36.5t174 -104.5t119.5 -174.5t44 -237.5q0 -133 -36 -252t-98 -209t-145 -162.5t-179 -118.5t-197.5 -70t-202.5 -24q-112 0 -212 36.5t-178 104.5t-123.5 174.5t-45.5 237.5zM219 584 q0 -119 40 -214.5t108 -156t156.5 -93t187.5 -32.5q107 0 214.5 30t206 92.5t174.5 149.5t121.5 211t45.5 267q0 118 -39.5 214t-107.5 156.5t-155 92.5t-184 32q-107 0 -215 -29.5t-207.5 -91.5t-176.5 -148.5t-123 -211t-46 -268.5zM506 641q0 97 40 178t103.5 131 t139 77.5t151.5 27.5q103 0 174.5 -55.5t77.5 -157.5l-70 -11q-7 75 -63 115.5t-135 40.5q-60 0 -120 -22.5t-110.5 -62.5t-82 -104t-31.5 -139q0 -98 61 -159t160 -66q53 -1 105 16t99.5 55.5t77.5 94.5l66 -8q-54 -109 -155 -167t-210 -58q-117 0 -197.5 72.5t-80.5 201.5 z" />
<glyph unicode="&#xaa;" horiz-adv-x="1007" d="M162 449l18 81h645l-18 -81h-645zM217 883q0 69 31 125.5t82 90.5t110.5 52t120.5 18q141 -3 242 -61l16 76q12 44 4 75.5t-23 51.5t-45.5 32t-63 16.5t-75.5 4.5q-127 0 -229 -55l-4 71q125 64 258 64q144 0 215 -63t45 -197l-74 -344q-10 -51 5 -68.5t63 -11.5l-6 -62 q-81 -13 -118.5 14.5t-18.5 112.5q-54 -68 -140 -100.5t-180 -32.5t-154.5 50.5t-60.5 140.5zM307 926q-18 -74 27 -116t125 -42q92 0 178.5 38t124.5 114l24 114q-100 62 -231 62q-89 0 -160.5 -42t-87.5 -128z" />
<glyph unicode="&#xab;" horiz-adv-x="915" d="M147 709l353 436l75 -25l-307 -411l133 -408l-86 -27zM463 709l352 436l76 -25l-307 -411l133 -408l-86 -27z" />
<glyph unicode="&#xac;" horiz-adv-x="1116" d="M176 664l19 88h798l-96 -459h-84l78 371h-715z" />
<glyph unicode="&#xad;" horiz-adv-x="933" d="M154 639l18 88h641l-18 -88h-641z" />
<glyph unicode="&#xae;" horiz-adv-x="1636" d="M139 575q0 159 51 297t136.5 235t196.5 167t231.5 103.5t240.5 33.5q111 0 211 -36.5t177.5 -104.5t123 -174.5t45.5 -237.5q0 -159 -51 -297t-136 -235t-195.5 -166.5t-231 -103t-240.5 -33.5q-112 0 -212 35.5t-178 102.5t-123.5 174t-45.5 240zM219 588q0 -96 26 -177 t72.5 -139t109 -98.5t135.5 -60t153 -19.5q107 0 214 30.5t205 94t173.5 150.5t120.5 210.5t45 264.5q0 119 -40 214.5t-108 156t-156 92.5t-188 32q-107 0 -214.5 -30t-206 -92.5t-174.5 -149.5t-121.5 -211t-45.5 -268zM563 379l144 672h264q87 0 137.5 -46.5t50.5 -127.5 q0 -96 -62.5 -164t-160.5 -82l145 -244l-2 -8h-75l-140 244h-178l-53 -244h-70zM698 684h191q82 0 140 50t58 128q0 56 -37 90.5t-98 34.5h-190z" />
<glyph unicode="&#xaf;" horiz-adv-x="1021" d="M483 1343l19 84h585l-18 -84h-586z" />
<glyph unicode="&#xb0;" horiz-adv-x="868" d="M223 1087q0 68 23.5 127.5t62.5 100.5t90 71t106.5 44t110.5 14q109 0 185 -64.5t76 -177.5q0 -86 -35.5 -156t-93.5 -113t-126.5 -66t-138.5 -23q-111 0 -185.5 63.5t-74.5 179.5zM303 1100q0 -88 56.5 -137.5t140.5 -49.5q71 0 137 30.5t112 96t46 150.5q0 88 -55 135 t-138 49q-72 0 -138.5 -29t-113.5 -93.5t-47 -151.5z" />
<glyph unicode="&#xb1;" horiz-adv-x="1052" d="M57 111l19 88h743l-18 -88h-744zM207 707l16 81h312l67 312h82l-68 -312h312l-17 -81h-311l-70 -330h-81l69 330h-311z" />
<glyph unicode="&#xb2;" horiz-adv-x="821" d="M172 778l4 19l461 413q76 64 104 137t-7.5 124t-131.5 51q-86 0 -138 -37.5t-77 -114.5h-70q61 219 299 219q92 0 145 -41.5t60.5 -103t-25.5 -136t-102 -137.5l-362 -319h401l-16 -74h-545z" />
<glyph unicode="&#xb3;" horiz-adv-x="776" d="M180 991h74q-4 -74 41.5 -114.5t128.5 -40.5q113 0 188.5 60.5t75.5 160.5q0 88 -82.5 126.5t-183.5 12.5l4 21l295 292h-395l14 68h524l-4 -14l-303 -301q95 6 152 -51t57 -146q0 -126 -101 -212.5t-255 -86.5q-117 0 -179.5 59t-50.5 166z" />
<glyph unicode="&#xb4;" horiz-adv-x="620" d="M406 1163l2 6l231 269l78 -41l-2 -11l-219 -223h-90z" />
<glyph unicode="&#xb5;" horiz-adv-x="1153" d="M-59 -512q40 192 150 704t169 797h96l-123 -573q-36 -162 29.5 -252t224.5 -90q150 0 263 95.5t145 248.5l121 571h96l-211 -989h-96l39 178q-80 -105 -166 -150.5t-209 -45.5q-125 0 -193 37.5t-100 125.5l-139 -657h-96z" />
<glyph unicode="&#xb6;" horiz-adv-x="1458" d="M140 857q23 198 148 352q148 183 375 216q46 7 93 7h678l-387 -1821h-99l367 1730h-492l-366 -1730h-101l160 754q-210 5 -312 161q-88 136 -64 331z" />
<glyph unicode="&#xb7;" horiz-adv-x="442" d="M174 721q0 35 26 57.5t62 22.5q27 0 44.5 -16t17.5 -42q0 -32 -27.5 -54.5t-63.5 -22.5q-26 0 -42.5 15.5t-16.5 39.5z" />
<glyph unicode="&#xb8;" horiz-adv-x="802" d="M127 -395l20 80q30 -38 94.5 -55t131 0.5t94.5 70.5q30 59 6.5 93t-68 47.5t-92.5 8.5l78 170h78l-59 -122q99 0 137.5 -59t-6.5 -156q-39 -75 -120.5 -111t-163.5 -25.5t-130 58.5z" />
<glyph unicode="&#xb9;" horiz-adv-x="653" d="M158 778l14 68h172l141 665h-151l14 68h232l-156 -733h174l-14 -68h-426z" />
<glyph unicode="&#xba;" horiz-adv-x="1097" d="M141 440l19 88h753l-18 -88h-754zM238 1014q0 110 45 200.5t117 147t158.5 87t174.5 30.5q137 0 231.5 -82t94.5 -230q0 -110 -44.5 -200.5t-117 -147t-158.5 -87t-174 -30.5q-139 0 -233 82t-94 230zM336 1028q0 -116 73 -179t179 -63q67 0 132.5 24t120 68.5 t88.5 115.5t34 157q0 114 -70 178t-174 64q-68 0 -134.5 -23.5t-122.5 -67.5t-91 -115.5t-35 -158.5z" />
<glyph unicode="&#xbb;" horiz-adv-x="915" d="M78 301l305 408l-131 411l86 25l166 -436l-352 -435zM393 301l305 408l-131 411l86 25l166 -436l-352 -435z" />
<glyph unicode="&#xbc;" horiz-adv-x="1732" d="M113 649l14 68h172l141 665h-153l14 68h234l-156 -733h174l-14 -68h-426zM362 2l996 1432h94l-997 -1432h-93zM963 182l8 39l559 582h80l-117 -549h90l-14 -72h-90l-39 -180h-76l39 180h-440zM1096 252h325l43 207q23 112 33 147q4 17 13 50t10 38h-2z" />
<glyph unicode="&#xbd;" horiz-adv-x="1775" d="M111 649l14 68h172l141 665h-153l14 68h233l-155 -733h174l-14 -68h-426zM356 2l996 1432h94l-997 -1432h-93zM1026 0l4 18l459 414q56 48 86.5 103t30 101t-39 76.5t-110.5 30.5q-168 0 -215 -151h-70q61 219 299 219q92 0 144.5 -41.5t59 -103.5t-26.5 -136t-101 -137 l-362 -319h401l-14 -74h-545z" />
<glyph unicode="&#xbe;" horiz-adv-x="1775" d="M145 864h74q-4 -74 41.5 -114.5t128.5 -40.5q112 0 187 60.5t75 160.5q0 88 -82.5 126.5t-181.5 12.5l4 21l293 292h-395l14 68h524l-2 -14l-303 -301q109 7 166 -63t39 -171q-26 -118 -122 -190t-230 -72q-117 0 -179.5 59t-50.5 166zM406 2l997 1432h94l-999 -1432h-92 zM995 182l9 39l569 582h80l-117 -551h90l-14 -70h-90l-39 -180h-76l39 180h-451zM1128 250h336l45 209q23 112 33 147l21 88h-2z" />
<glyph unicode="&#xbf;" horiz-adv-x="983" d="M-64 -209.5q-15 74.5 13 176.5q20 68 56.5 124.5t80 97t93 80.5t98 84t90.5 96t76 128.5t51 170.5h100q-22 -108 -59.5 -195.5t-82 -144.5t-94 -104t-98 -85.5t-90.5 -77t-76.5 -90.5t-50.5 -114q-20 -62 -12 -108t30.5 -77t62.5 -49.5t84 -26.5t95 -8q84 0 157.5 21.5 t136.5 79.5t83 147h90q-18 -88 -66 -155.5t-115.5 -108t-145 -60.5t-162.5 -20q-83 0 -154 23.5t-123.5 72t-67.5 123zM524 961q0 32 23.5 53.5t58.5 21.5q25 0 41.5 -15.5t16.5 -39.5q0 -31 -26 -51.5t-58 -20.5q-56 0 -56 52z" />
<glyph unicode="&#xc0;" horiz-adv-x="1449" d="M-86 0l2 12l975 1426h47l362 -1426l-2 -12h-100l-106 414h-781l-282 -414h-115zM365 504h710l-190 764zM772 1782l2 10l94 41l119 -268v-6h-90z" />
<glyph unicode="&#xc1;" horiz-adv-x="1449" d="M-86 0l2 12l975 1426h47l362 -1426l-2 -12h-100l-106 414h-781l-282 -414h-115zM365 504h710l-190 764zM874 1554l3 7l231 268l78 -41l-2 -10l-219 -224h-91z" />
<glyph unicode="&#xc2;" horiz-adv-x="1449" d="M-86 0l2 12l975 1426h47l362 -1426l-2 -12h-100l-106 414h-781l-282 -414h-115zM365 504h710l-190 764zM578 1532l2 10l333 254h101l225 -256l-2 -8h-107l-178 201l-268 -201h-106z" />
<glyph unicode="&#xc3;" horiz-adv-x="1449" d="M-86 0l2 12l975 1426h47l362 -1426l-2 -12h-100l-106 414h-781l-282 -414h-115zM365 504h710l-190 764zM618 1608q74 94 165.5 116.5t183.5 -38.5q54 -44 108 -37t111 77q8 -4 17 -9.5t19 -12.5t15 -10q-69 -95 -153.5 -117.5t-172.5 37.5q-58 45 -117 37.5t-120 -78.5 q-7 5 -28 17.5t-28 17.5z" />
<glyph unicode="&#xc4;" horiz-adv-x="1449" d="M-86 0l2 12l975 1426h47l362 -1426l-2 -12h-100l-106 414h-781l-282 -414h-115zM365 504h710l-190 764zM627 1622q0 35 24 56.5t60 21.5q26 0 41.5 -15t15.5 -40q0 -30 -25.5 -53t-58.5 -23q-28 0 -42.5 14.5t-14.5 38.5zM1075 1622q0 35 24 56.5t60 21.5 q25 0 41.5 -15.5t16.5 -39.5q0 -30 -25.5 -53t-58.5 -23q-28 0 -43 14.5t-15 38.5z" />
<glyph unicode="&#xc5;" horiz-adv-x="1449" d="M-86 0l2 12l967 1413q-71 5 -117.5 49t-46.5 119q0 78 42.5 136.5t104 86t129.5 27.5q83 0 136 -43.5t53 -126.5q0 -104 -73.5 -171t-170.5 -75l360 -1415l-2 -12h-106l-109 414h-776l-284 -414h-109zM360 504h707l-190 756zM799 1608q0 -53 35.5 -82t87.5 -29 q69 0 125.5 43.5t56.5 116.5q0 53 -36 82.5t-87 29.5q-72 0 -127 -43t-55 -118z" />
<glyph unicode="&#xc6;" horiz-adv-x="1693" d="M-84 0l2 14l1063 1416h764l-19 -93h-622l-117 -549h594l-20 -92h-594l-127 -604h630l-20 -92h-723l94 442h-471l-330 -442h-104zM408 530h432l172 801z" />
<glyph unicode="&#xc7;" horiz-adv-x="1558" d="M123 571q0 184 73 349.5t195 282t286.5 184t342.5 65.5q136 0 249 -47.5t189.5 -143t95.5 -227.5h-100q-24 157 -151 239.5t-308 82.5q-157 -2 -299 -63.5t-244.5 -164t-162.5 -243t-60 -295.5q0 -112 29 -203.5t87.5 -161t152.5 -107.5t217 -38q183 0 350 91t268 255 h103q-102 -200 -284.5 -313.5t-387.5 -126.5l-47 -101q99 0 137.5 -59t-6.5 -156q-39 -75 -120.5 -111t-163.5 -25.5t-130 58.5l21 80q30 -38 94.5 -55t130.5 1t94 71q30 59 7 93t-67.5 47.5t-92.5 8.5l65 146q-256 4 -409.5 166.5t-153.5 420.5z" />
<glyph unicode="&#xc8;" horiz-adv-x="1161" d="M78 0q191 913 305 1434h827l-20 -91h-725l-117 -557h694q-9 -34 -20 -92h-694q-40 -183 -127 -600h731q-14 -57 -21 -94h-833zM709 1798l2 10l94 41l119 -268v-6h-90z" />
<glyph unicode="&#xc9;" horiz-adv-x="1161" d="M78 0q191 913 305 1434h827l-20 -91h-725l-117 -557h694q-9 -34 -20 -92h-694q-40 -183 -127 -600h731q-14 -57 -21 -94h-833zM758 1569l2 6l231 268l78 -41l-2 -10l-219 -223h-90z" />
<glyph unicode="&#xca;" horiz-adv-x="1161" d="M78 0q191 913 305 1434h827l-20 -91h-725l-117 -557h694q-9 -34 -20 -92h-694q-40 -183 -127 -600h731q-14 -57 -21 -94h-833zM518 1579l2 10l318 250h96l215 -252l-2 -8h-103l-170 197l-256 -197h-100z" />
<glyph unicode="&#xcb;" horiz-adv-x="1161" d="M78 0q191 913 305 1434h827l-20 -91h-725l-117 -557h694q-9 -34 -20 -92h-694q-40 -183 -127 -600h731q-14 -57 -21 -94h-833zM559 1645q0 35 24 56t60 21q26 0 41.5 -15t15.5 -40q0 -30 -25.5 -53t-58.5 -23q-28 0 -42.5 15t-14.5 39zM1008 1645q0 35 24 56t60 21 q25 0 41 -15t16 -40q0 -30 -25.5 -53t-58.5 -23q-28 0 -42.5 15t-14.5 39z" />
<glyph unicode="&#xcc;" horiz-adv-x="770" d="M-63 0l18 84h272l269 1266h-254l18 84h610l-18 -84h-254l-268 -1266h272l-18 -84h-647zM442 1780l2 10l95 41l118 -268v-7h-90z" />
<glyph unicode="&#xcd;" horiz-adv-x="770" d="M-63 0l18 84h272l269 1266h-254l18 84h610l-18 -84h-254l-268 -1266h272l-18 -84h-647zM528 1559l2 6l232 268l78 -41l-2 -10l-220 -223h-90z" />
<glyph unicode="&#xce;" horiz-adv-x="770" d="M-63 0l18 84h272l269 1266h-254l18 84h610l-18 -84h-254l-268 -1266h272l-18 -84h-647zM272 1552l2 11l320 247h96l215 -249l-2 -9h-102l-170 195l-256 -195h-103z" />
<glyph unicode="&#xcf;" horiz-adv-x="770" d="M-63 0l18 84h272l269 1266h-254l18 84h610l-18 -84h-254l-268 -1266h272l-18 -84h-647zM317 1616q0 35 24 56.5t60 21.5q26 0 42 -15.5t16 -40.5q0 -30 -25.5 -52.5t-58.5 -22.5q-28 0 -43 14.5t-15 38.5zM766 1616q0 35 24 56.5t60 21.5q25 0 41 -15.5t16 -40.5 q0 -30 -25.5 -52.5t-58.5 -22.5q-28 0 -42.5 14.5t-14.5 38.5z" />
<glyph unicode="&#xd0;" horiz-adv-x="1509" d="M51 662l19 86h170l145 686h494q133 0 241 -45t177 -123.5t106 -182.5t37 -225q0 -170 -65 -326.5t-177.5 -274t-275.5 -187.5t-349 -70h-493l141 662h-170zM205 96h385q154 0 293 60t237.5 161t156.5 238t58 285q0 81 -14.5 150.5t-49 133.5t-88 109t-137 73t-190.5 31 h-387l-125 -589h272l-18 -86h-272z" />
<glyph unicode="&#xd1;" horiz-adv-x="1521" d="M78 0l305 1436h41l721 -1223l104 537l146 686h104l-305 -1436h-35l-725 1223l-98 -502l-154 -721h-104zM686 1602q74 94 165 116t183 -39q55 -44 108 -36.5t111 77.5q7 -4 52 -32q-69 -95 -153.5 -117.5t-172.5 37.5q-58 45 -117.5 37.5t-120.5 -78.5q-7 5 -27.5 17.5 t-27.5 17.5z" />
<glyph unicode="&#xd2;" horiz-adv-x="1679" d="M123 569q0 126 34 244t94 214.5t144.5 177.5t183.5 135.5t212.5 85t230.5 30.5q266 0 428 -163.5t162 -428.5q0 -184 -72 -349t-193 -282.5t-288 -186.5t-350 -69q-263 0 -424.5 163.5t-161.5 428.5zM223 588q-8 -228 127 -371t363 -143q155 0 299 60t252 162t174.5 246 t70.5 304q5 228 -129 370t-362 142q-155 0 -299 -59t-252 -160.5t-174 -245.5t-70 -305zM893 1810l2 11l94 41l119 -269v-6h-90z" />
<glyph unicode="&#xd3;" horiz-adv-x="1679" d="M123 569q0 126 34 244t94 214.5t144.5 177.5t183.5 135.5t212.5 85t230.5 30.5q266 0 428 -163.5t162 -428.5q0 -184 -72 -349t-193 -282.5t-288 -186.5t-350 -69q-263 0 -424.5 163.5t-161.5 428.5zM223 588q-8 -228 127 -371t363 -143q155 0 299 60t252 162t174.5 246 t70.5 304q5 228 -129 370t-362 142q-155 0 -299 -59t-252 -160.5t-174 -245.5t-70 -305zM991 1589l2 6l232 269l78 -41l-3 -11l-219 -223h-90z" />
<glyph unicode="&#xd4;" horiz-adv-x="1679" d="M123 569q0 126 34 244t94 214.5t144.5 177.5t183.5 135.5t212.5 85t230.5 30.5q266 0 428 -163.5t162 -428.5q0 -184 -72 -349t-193 -282.5t-288 -186.5t-350 -69q-263 0 -424.5 163.5t-161.5 428.5zM223 588q-8 -228 127 -371t363 -143q155 0 299 60t252 162t174.5 246 t70.5 304q5 228 -129 370t-362 142q-155 0 -299 -59t-252 -160.5t-174 -245.5t-70 -305zM723 1569l2 10l334 254h100l225 -256l-2 -8h-106l-178 200l-269 -200h-106z" />
<glyph unicode="&#xd5;" horiz-adv-x="1679" d="M123 569q0 126 34 244t94 214.5t144.5 177.5t183.5 135.5t212.5 85t230.5 30.5q266 0 428 -163.5t162 -428.5q0 -184 -72 -349t-193 -282.5t-288 -186.5t-350 -69q-263 0 -424.5 163.5t-161.5 428.5zM223 588q-8 -228 127 -371t363 -143q155 0 299 60t252 162t174.5 246 t70.5 304q5 228 -129 370t-362 142q-155 0 -299 -59t-252 -160.5t-174 -245.5t-70 -305zM776 1663q74 94 165 116.5t183 -38.5q55 -44 108 -36.5t111 77.5q11 -6 30 -18.5t22 -14.5q-69 -95 -153.5 -117.5t-172.5 37.5q-58 45 -117.5 37.5t-120.5 -78.5q-7 5 -27.5 17.5 t-27.5 17.5z" />
<glyph unicode="&#xd6;" horiz-adv-x="1679" d="M123 569q0 126 34 244t94 214.5t144.5 177.5t183.5 135.5t212.5 85t230.5 30.5q266 0 428 -163.5t162 -428.5q0 -184 -72 -349t-193 -282.5t-288 -186.5t-350 -69q-263 0 -424.5 163.5t-161.5 428.5zM223 588q-8 -228 127 -371t363 -143q155 0 299 60t252 162t174.5 246 t70.5 304q5 228 -129 370t-362 142q-155 0 -299 -59t-252 -160.5t-174 -245.5t-70 -305zM778 1675q0 35 24 56.5t60 21.5q26 0 42 -15t16 -40q0 -30 -25.5 -53t-58.5 -23q-28 0 -43 14.5t-15 38.5zM1227 1675q0 35 24 56.5t60 21.5q25 0 41 -15t16 -40q0 -30 -25.5 -53 t-58.5 -23q-28 0 -42.5 14.5t-14.5 38.5z" />
<glyph unicode="&#xd7;" horiz-adv-x="880" d="M123 479l280 232l-184 235l70 58l186 -234l285 236l47 -62l-285 -235l180 -230l-69 -59l-182 231l-281 -231z" />
<glyph unicode="&#xd8;" horiz-adv-x="1675" d="M123 565q0 189 74 355.5t197 282t287 182.5t341 67q183 0 326 -82l120 156h103l-2 -8l-156 -195q92 -70 143.5 -188.5t51.5 -270.5q0 -189 -74 -355t-197 -281t-287 -181.5t-341 -66.5q-185 0 -314 75l-139 -170h-104l2 11l170 206q-94 69 -147.5 189.5t-53.5 273.5z M227 586q0 -132 45 -234t125 -164l881 1094q-116 68 -279 68q-154 0 -295.5 -58t-246.5 -158.5t-167.5 -243.5t-62.5 -304zM463 145q108 -67 266 -67q204 0 380.5 99.5t283 276.5t106.5 390q0 128 -43.5 229.5t-118.5 159.5z" />
<glyph unicode="&#xd9;" horiz-adv-x="1445" d="M168 492l201 942h102l-201 -940q-41 -197 50.5 -308.5t287.5 -111.5t343.5 113t187.5 307l200 940h101l-201 -942q-49 -237 -223 -373.5t-418 -136.5q-241 0 -360 137t-70 373zM799 1788l2 10l94 41l119 -268v-6h-90z" />
<glyph unicode="&#xda;" horiz-adv-x="1445" d="M168 492l201 942h102l-201 -940q-41 -197 50.5 -308.5t287.5 -111.5t343.5 113t187.5 307l200 940h101l-201 -942q-49 -237 -223 -373.5t-418 -136.5q-241 0 -360 137t-70 373zM860 1581l2 6l232 268l77 -40l-2 -11l-219 -223h-90z" />
<glyph unicode="&#xdb;" horiz-adv-x="1445" d="M168 492l201 942h102l-201 -940q-41 -197 50.5 -308.5t287.5 -111.5t343.5 113t187.5 307l200 940h101l-201 -942q-49 -237 -223 -373.5t-418 -136.5q-241 0 -360 137t-70 373zM612 1575l2 10l334 254h101l225 -256l-2 -8h-107l-178 201l-268 -201h-107z" />
<glyph unicode="&#xdc;" horiz-adv-x="1445" d="M168 492l201 942h102l-201 -940q-41 -197 50.5 -308.5t287.5 -111.5t343.5 113t187.5 307l200 940h101l-201 -942q-49 -237 -223 -373.5t-418 -136.5q-241 0 -360 137t-70 373zM664 1679q0 35 24 56.5t60 21.5q26 0 41.5 -15t15.5 -40q0 -30 -25.5 -53t-58.5 -23 q-28 0 -42.5 14.5t-14.5 38.5zM1112 1679q0 35 24 56.5t60 21.5q25 0 41 -15t16 -40q0 -30 -25.5 -53t-58.5 -23q-28 0 -42.5 14.5t-14.5 38.5z" />
<glyph unicode="&#xdd;" horiz-adv-x="1273" d="M225 1421q0 3 1 6.5t1 6.5h105l313 -727h4l621 727h119l-3 -15l-704 -823l-127 -596h-102l127 596zM758 1559l2 6l231 268l78 -41l-2 -10l-219 -223h-90z" />
<glyph unicode="&#xde;" horiz-adv-x="1327" d="M78 0l305 1434h102l-49 -234h451q218 0 328.5 -134t66.5 -341t-212 -340t-386 -133h-451l-53 -252h-102zM250 342h452q130 0 242.5 59t180 164.5t67.5 233.5q0 140 -89.5 225.5t-236.5 85.5h-452z" />
<glyph unicode="&#xdf;" horiz-adv-x="1189" d="M37 2l219 1030q20 92 57 163.5t83 118t105.5 77t117.5 44.5t126.5 16.5t126 -3t121.5 -18.5t107.5 -25t89.5 -27l-8 -37l-475 -491q152 25 255 -74.5t103 -263.5q0 -196 -95.5 -331.5t-255.5 -183.5t-347 1l18 86q96 -22 181.5 -19.5t158 36.5t125 89t82 136t29.5 178 q0 66 -22.5 119t-62 87t-91 52t-112.5 16.5t-124 -22.5l12 51l473 508q-76 32 -157.5 46.5t-166 5t-155 -44.5t-125 -108.5t-76.5 -179.5l-219 -1032h-98z" />
<glyph unicode="&#xe0;" horiz-adv-x="1208" d="M64 344q0 76 16 160q53 235 229 368.5t418 133.5q187 0 360 -93l-143 -673q-4 -20 -6.5 -30t-5.5 -27t-3 -25t0.5 -20.5t4 -18.5t8.5 -14t14 -11t20.5 -6t27.5 -2.5t36 2.5l-16 -88q-121 -18 -160.5 26t-15.5 156l10 49q-78 -120 -192.5 -181.5t-247.5 -61.5 q-87 0 -155 27t-109.5 75t-65.5 113t-24 141zM161.5 371.5q-1.5 -61.5 13.5 -115.5t46.5 -92.5t86 -61t128.5 -22.5q171 0 299 115.5t170 302.5l76 356q-131 70 -276 70q-189 0 -335.5 -113t-191.5 -307q-15 -71 -16.5 -132.5zM647 1415l2 10l86 37l109 -245v-7h-82z" />
<glyph unicode="&#xe1;" horiz-adv-x="1208" d="M64 344q0 76 16 160q53 235 229 368.5t418 133.5q187 0 360 -93l-143 -673q-4 -20 -6.5 -30t-5.5 -27t-3 -25t0.5 -20.5t4 -18.5t8.5 -14t14 -11t20.5 -6t27.5 -2.5t36 2.5l-16 -88q-121 -18 -160.5 26t-15.5 156l10 49q-78 -120 -192.5 -181.5t-247.5 -61.5 q-87 0 -155 27t-109.5 75t-65.5 113t-24 141zM161.5 371.5q-1.5 -61.5 13.5 -115.5t46.5 -92.5t86 -61t128.5 -22.5q171 0 299 115.5t170 302.5l76 356q-131 70 -276 70q-189 0 -335.5 -113t-191.5 -307q-15 -71 -16.5 -132.5zM666 1204l2 6l219 252l74 -39l-3 -8l-206 -211 h-86z" />
<glyph unicode="&#xe2;" horiz-adv-x="1208" d="M64 344q0 76 16 160q53 235 229 368.5t418 133.5q187 0 360 -93l-143 -673q-4 -20 -6.5 -30t-5.5 -27t-3 -25t0.5 -20.5t4 -18.5t8.5 -14t14 -11t20.5 -6t27.5 -2.5t36 2.5l-16 -88q-121 -18 -160.5 26t-15.5 156l10 49q-78 -120 -192.5 -181.5t-247.5 -61.5 q-87 0 -155 27t-109.5 75t-65.5 113t-24 141zM161.5 371.5q-1.5 -61.5 13.5 -115.5t46.5 -92.5t86 -61t128.5 -22.5q171 0 299 115.5t170 302.5l76 356q-131 70 -276 70q-189 0 -335.5 -113t-191.5 -307q-15 -71 -16.5 -132.5zM446 1202l3 8l294 244h88l199 -246l-2 -6h-94 l-156 193l-237 -193h-95z" />
<glyph unicode="&#xe3;" horiz-adv-x="1208" d="M64 344q0 76 16 160q53 235 229 368.5t418 133.5q187 0 360 -93l-143 -673q-4 -20 -6.5 -30t-5.5 -27t-3 -25t0.5 -20.5t4 -18.5t8.5 -14t14 -11t20.5 -6t27.5 -2.5t36 2.5l-16 -88q-121 -18 -160.5 26t-15.5 156l10 49q-78 -120 -192.5 -181.5t-247.5 -61.5 q-87 0 -155 27t-109.5 75t-65.5 113t-24 141zM161.5 371.5q-1.5 -61.5 13.5 -115.5t46.5 -92.5t86 -61t128.5 -22.5q171 0 299 115.5t170 302.5l76 356q-131 70 -276 70q-189 0 -335.5 -113t-191.5 -307q-15 -71 -16.5 -132.5zM496 1311q69 88 154 108.5t171 -37.5 q52 -41 101 -34t104 73l47 -30q-65 -89 -143.5 -110t-159.5 36q-53 41 -109 33.5t-114 -72.5q-6 6 -26 18z" />
<glyph unicode="&#xe4;" horiz-adv-x="1208" d="M64 344q0 76 16 160q53 235 229 368.5t418 133.5q187 0 360 -93l-143 -673q-4 -20 -6.5 -30t-5.5 -27t-3 -25t0.5 -20.5t4 -18.5t8.5 -14t14 -11t20.5 -6t27.5 -2.5t36 2.5l-16 -88q-121 -18 -160.5 26t-15.5 156l10 49q-78 -120 -192.5 -181.5t-247.5 -61.5 q-87 0 -155 27t-109.5 75t-65.5 113t-24 141zM161.5 371.5q-1.5 -61.5 13.5 -115.5t46.5 -92.5t86 -61t128.5 -22.5q171 0 299 115.5t170 302.5l76 356q-131 70 -276 70q-189 0 -335.5 -113t-191.5 -307q-15 -71 -16.5 -132.5zM524 1360q0 35 24 56.5t60 21.5q26 0 42 -15.5 t16 -40.5q0 -30 -25.5 -52.5t-58.5 -22.5q-28 0 -43 14.5t-15 38.5zM913 1360q0 35 24 56.5t60 21.5q25 0 41.5 -15.5t16.5 -40.5q0 -30 -25.5 -52.5t-58.5 -22.5q-28 0 -43 14.5t-15 38.5z" />
<glyph unicode="&#xe5;" horiz-adv-x="1208" d="M64 344q0 76 16 160q53 235 229 368.5t418 133.5q187 0 360 -93l-143 -673q-4 -20 -6.5 -30t-5.5 -27t-3 -25t0.5 -20.5t4 -18.5t8.5 -14t14 -11t20.5 -6t27.5 -2.5t36 2.5l-16 -88q-121 -18 -160.5 26t-15.5 156l10 49q-78 -120 -192.5 -181.5t-247.5 -61.5 q-87 0 -155 27t-109.5 75t-65.5 113t-24 141zM161.5 371.5q-1.5 -61.5 13.5 -115.5t46.5 -92.5t86 -61t128.5 -22.5q171 0 299 115.5t170 302.5l76 356q-131 70 -276 70q-189 0 -335.5 -113t-191.5 -307q-15 -71 -16.5 -132.5zM588 1323q0 68 40 117.5t97 71.5t121 22 q72 0 120 -37t48 -106q0 -96 -79 -152.5t-177 -56.5q-73 0 -121.5 37.5t-48.5 103.5zM662 1337q0 -45 32.5 -69.5t79.5 -24.5q66 0 116 36t50 101q0 42 -32 66t-79 24q-66 0 -116.5 -35t-50.5 -98z" />
<glyph unicode="&#xe6;" horiz-adv-x="1796" d="M68 362q0 147 49 269.5t134 203.5t198.5 126t242.5 45q160 0 320 -93l-31 -141q78 110 197 173t249 65q70 0 132.5 -19t111 -58.5t64.5 -101t-6 -145.5q-22 -73 -68 -128t-105.5 -84.5t-121 -43.5t-125.5 -14q-111 0 -210.5 28t-156.5 88q-62 -211 22.5 -337.5 t288.5 -126.5q165 0 318 69l-19 -84q-156 -65 -321 -65q-291 0 -361 231l-47 -219h-67l47 244q-60 -123 -174.5 -195t-239.5 -72q-143 0 -232 100.5t-89 284.5zM164 383q0 -152 69.5 -236t192.5 -84q78 0 151.5 39t128.5 102t94.5 140t55.5 156l76 354q-119 70 -260 70 q-103 0 -195.5 -38t-162 -106.5t-110 -171.5t-40.5 -225zM971 618q46 -57 144.5 -87.5t199.5 -30.5q49 0 96 9t94.5 29t83.5 59.5t51 92.5q18 63 5 107.5t-52.5 72.5t-87 41t-98.5 13q-144 2 -260.5 -77.5t-175.5 -228.5z" />
<glyph unicode="&#xe7;" horiz-adv-x="1163" d="M68 397q0 116 39 217t104.5 172.5t149.5 123t175 76t181 24.5q149 0 254.5 -76.5t122.5 -218.5h-97q-22 101 -106 155t-197 52q-73 0 -147 -22t-142 -65.5t-121 -103.5t-84.5 -142.5t-31.5 -174.5q0 -161 93.5 -250.5t236.5 -89.5q120 0 238 61t184 174h108 q-52 -102 -138 -174.5t-179.5 -107t-194.5 -39.5l-43 -90q99 0 137.5 -59t-6.5 -156q-39 -75 -120.5 -111t-163.5 -25.5t-130 58.5l21 80q30 -38 94.5 -55t130.5 0.5t94 70.5q30 59 7 93t-67.5 47.5t-92.5 8.5l61 138q-160 13 -265 121t-105 288z" />
<glyph unicode="&#xe8;" horiz-adv-x="1099" d="M96 567q61 206 224.5 324.5t375.5 118.5q77 0 145.5 -19t122.5 -58.5t73 -101t-3 -145.5q-21 -74 -71 -129.5t-115.5 -85.5t-133 -44.5t-136.5 -14.5q-119 0 -228 28.5t-170 89.5q-66 -213 23.5 -333.5t312.5 -120.5q189 0 358 69l-20 -94q-172 -67 -350 -67 q-270 0 -380.5 156.5t-27.5 426.5zM211 618q50 -58 156.5 -87t218.5 -29q53 0 103 8.5t101 28t90 58.5t56 93q16 50 6 88t-34.5 65t-63 44t-81 25t-87.5 8q-159 0 -281 -76.5t-184 -225.5zM594 1434l2 8l88 39l113 -252v-6h-86z" />
<glyph unicode="&#xe9;" horiz-adv-x="1099" d="M96 567q61 206 224.5 324.5t375.5 118.5q77 0 145.5 -19t122.5 -58.5t73 -101t-3 -145.5q-21 -74 -71 -129.5t-115.5 -85.5t-133 -44.5t-136.5 -14.5q-119 0 -228 28.5t-170 89.5q-66 -213 23.5 -333.5t312.5 -120.5q189 0 358 69l-20 -94q-172 -67 -350 -67 q-270 0 -380.5 156.5t-27.5 426.5zM211 618q50 -58 156.5 -87t218.5 -29q53 0 103 8.5t101 28t90 58.5t56 93q16 50 6 88t-34.5 65t-63 44t-81 25t-87.5 8q-159 0 -281 -76.5t-184 -225.5zM659 1212l3 5l215 249l71 -36l-2 -11l-203 -207h-84z" />
<glyph unicode="&#xea;" horiz-adv-x="1099" d="M96 567q61 206 224.5 324.5t375.5 118.5q77 0 145.5 -19t122.5 -58.5t73 -101t-3 -145.5q-21 -74 -71 -129.5t-115.5 -85.5t-133 -44.5t-136.5 -14.5q-119 0 -228 28.5t-170 89.5q-66 -213 23.5 -333.5t312.5 -120.5q189 0 358 69l-20 -94q-172 -67 -350 -67 q-270 0 -380.5 156.5t-27.5 426.5zM211 618q50 -58 156.5 -87t218.5 -29q53 0 103 8.5t101 28t90 58.5t56 93q16 50 6 88t-34.5 65t-63 44t-81 25t-87.5 8q-159 0 -281 -76.5t-184 -225.5zM434 1206l2 8l309 236h93l209 -238l-3 -6h-98l-166 185l-248 -185h-98z" />
<glyph unicode="&#xeb;" horiz-adv-x="1099" d="M96 567q61 206 224.5 324.5t375.5 118.5q77 0 145.5 -19t122.5 -58.5t73 -101t-3 -145.5q-21 -74 -71 -129.5t-115.5 -85.5t-133 -44.5t-136.5 -14.5q-119 0 -228 28.5t-170 89.5q-66 -213 23.5 -333.5t312.5 -120.5q189 0 358 69l-20 -94q-172 -67 -350 -67 q-270 0 -380.5 156.5t-27.5 426.5zM211 618q50 -58 156.5 -87t218.5 -29q53 0 103 8.5t101 28t90 58.5t56 93q16 50 6 88t-34.5 65t-63 44t-81 25t-87.5 8q-159 0 -281 -76.5t-184 -225.5zM481 1362q0 31 23 51.5t55 20.5q25 0 39 -14t14 -38q0 -29 -23 -49t-54 -20 q-25 0 -39.5 14t-14.5 35zM897 1362q0 32 22.5 52t55.5 20q23 0 38 -14.5t15 -37.5q0 -29 -23.5 -49t-54.5 -20q-25 0 -39 14t-14 35z" />
<glyph unicode="&#xec;" horiz-adv-x="438" d="M45 0l209 983h98l-209 -983h-98zM209 1427l2 11l90 39l115 -258v-7h-86z" />
<glyph unicode="&#xed;" horiz-adv-x="438" d="M45 0l209 983h98l-209 -983h-98zM295 1204l2 6l221 258l74 -41l-2 -8l-209 -215h-86z" />
<glyph unicode="&#xee;" horiz-adv-x="438" d="M43 1184l2 10l281 264h86l190 -266l-2 -8h-90l-152 207l-225 -207h-90zM45 0l209 983h98l-209 -983h-98z" />
<glyph unicode="&#xef;" horiz-adv-x="438" d="M45 0l209 983h98l-209 -983h-98zM156 1360q0 35 24 56.5t60 21.5q26 0 41.5 -15.5t15.5 -40.5q0 -30 -25.5 -52.5t-58.5 -22.5q-28 0 -42.5 14.5t-14.5 38.5zM469 1360q0 35 24 56.5t60 21.5q26 0 41.5 -15.5t15.5 -40.5q0 -30 -25.5 -52.5t-58.5 -22.5q-28 0 -42.5 14.5 t-14.5 38.5z" />
<glyph unicode="&#xf0;" horiz-adv-x="1222" d="M66 381q0 109 36 204t96.5 162.5t139.5 116t165.5 73t174.5 26.5q113 0 208 -44t138 -131q-31 186 -172 394l-162 -99l-22 45l155 99q-90 125 -188 192q0 2 2 4h106q91 -66 158 -157l152 100l20 -47l-139 -92q115 -159 160.5 -357.5t5.5 -392.5l-6 -22 q-30 -114 -94.5 -206t-148.5 -149t-178.5 -87.5t-189.5 -30.5q-113 0 -206 44t-152 136.5t-59 218.5zM162 395q-4 -154 91.5 -239.5t238.5 -85.5q91 0 180.5 32.5t164.5 91.5t123 154t52 209q4 152 -93.5 237t-242.5 85q-71 0 -142 -19.5t-136.5 -60t-117 -97t-83.5 -136 t-35 -171.5z" />
<glyph unicode="&#xf1;" horiz-adv-x="1214" d="M68 0l151 713q25 124 25 150q0 52 -42 62q-25 6 -71 1l14 67q115 26 159.5 -23t19.5 -163q142 201 413 201q183 0 266.5 -116.5t45.5 -297.5l-82 -379q-24 -87 -3.5 -121t107.5 -18l-16 -78q-133 -23 -176 26.5t-13 180.5l84 389q33 151 -32.5 240.5t-221.5 89.5 q-146 0 -259.5 -93.5t-145.5 -244.5l-125 -586h-98zM471 1315q69 90 155.5 111t172.5 -37q53 -41 103.5 -34.5t105.5 72.5q3 -2 20.5 -13.5t26.5 -16.5q-65 -90 -144 -112t-163 36q-54 43 -110 35.5t-116 -74.5q-6 6 -26 18z" />
<glyph unicode="&#xf2;" d="M68 395q0 116 38 216.5t102 172t147 123t173.5 76.5t180.5 25q85 0 160.5 -26.5t135 -76.5t94 -129.5t34.5 -177.5q0 -116 -38 -217t-102 -172t-146.5 -122.5t-172.5 -76t-180 -24.5q-86 0 -162.5 26.5t-135.5 76.5t-93.5 129t-34.5 177zM164 412q-5 -106 42 -184 t122.5 -115t167.5 -37t183.5 33.5t169 94.5t127.5 159.5t54 216.5q4 160 -90.5 249t-239.5 89q-93 0 -185 -33t-169.5 -94.5t-127.5 -160.5t-54 -218zM643 1423l2 11l86 36l111 -247v-6h-84z" />
<glyph unicode="&#xf3;" d="M68 395q0 116 38 216.5t102 172t147 123t173.5 76.5t180.5 25q85 0 160.5 -26.5t135 -76.5t94 -129.5t34.5 -177.5q0 -116 -38 -217t-102 -172t-146.5 -122.5t-172.5 -76t-180 -24.5q-86 0 -162.5 26.5t-135.5 76.5t-93.5 129t-34.5 177zM164 412q-5 -106 42 -184 t122.5 -115t167.5 -37t183.5 33.5t169 94.5t127.5 159.5t54 216.5q4 160 -90.5 249t-239.5 89q-93 0 -185 -33t-169.5 -94.5t-127.5 -160.5t-54 -218zM694 1212l2 5l215 249l72 -36l-2 -11l-203 -207h-84z" />
<glyph unicode="&#xf4;" d="M68 395q0 116 38 216.5t102 172t147 123t173.5 76.5t180.5 25q85 0 160.5 -26.5t135 -76.5t94 -129.5t34.5 -177.5q0 -116 -38 -217t-102 -172t-146.5 -122.5t-172.5 -76t-180 -24.5q-86 0 -162.5 26.5t-135.5 76.5t-93.5 129t-34.5 177zM164 412q-5 -106 42 -184 t122.5 -115t167.5 -37t183.5 33.5t169 94.5t127.5 159.5t54 216.5q4 160 -90.5 249t-239.5 89q-93 0 -185 -33t-169.5 -94.5t-127.5 -160.5t-54 -218zM444 1198l2 8l306 244h92l205 -246l-2 -6h-97l-164 193l-245 -193h-97z" />
<glyph unicode="&#xf5;" d="M68 395q0 116 38 216.5t102 172t147 123t173.5 76.5t180.5 25q85 0 160.5 -26.5t135 -76.5t94 -129.5t34.5 -177.5q0 -116 -38 -217t-102 -172t-146.5 -122.5t-172.5 -76t-180 -24.5q-86 0 -162.5 26.5t-135.5 76.5t-93.5 129t-34.5 177zM164 412q-5 -106 42 -184 t122.5 -115t167.5 -37t183.5 33.5t169 94.5t127.5 159.5t54 216.5q4 160 -90.5 249t-239.5 89q-93 0 -185 -33t-169.5 -94.5t-127.5 -160.5t-54 -218zM508 1303q69 90 155.5 110.5t172.5 -37.5q53 -41 103 -34t105 73q4 -3 21.5 -14.5t26.5 -16.5q-65 -90 -145 -111.5 t-163 36.5q-54 43 -109.5 35.5t-115.5 -74.5q-6 6 -26 18z" />
<glyph unicode="&#xf6;" d="M68 395q0 116 38 216.5t102 172t147 123t173.5 76.5t180.5 25q85 0 160.5 -26.5t135 -76.5t94 -129.5t34.5 -177.5q0 -116 -38 -217t-102 -172t-146.5 -122.5t-172.5 -76t-180 -24.5q-86 0 -162.5 26.5t-135.5 76.5t-93.5 129t-34.5 177zM164 412q-5 -106 42 -184 t122.5 -115t167.5 -37t183.5 33.5t169 94.5t127.5 159.5t54 216.5q4 160 -90.5 249t-239.5 89q-93 0 -185 -33t-169.5 -94.5t-127.5 -160.5t-54 -218zM506 1348q0 31 23 51t55 20q25 0 39 -14t14 -37q0 -29 -23.5 -49.5t-54.5 -20.5q-25 0 -39 14.5t-14 35.5zM922 1348 q0 32 22 51.5t55 19.5q24 0 39 -14t15 -37q0 -29 -23.5 -49.5t-54.5 -20.5q-25 0 -39 14.5t-14 35.5z" />
<glyph unicode="&#xf7;" horiz-adv-x="1077" d="M178 690l19 88h751l-18 -88h-752zM426 418q0 31 25 52.5t57 21.5q25 0 41 -14.5t16 -37.5q0 -30 -26 -51.5t-58 -21.5q-25 0 -40 14t-15 37zM557 1028q0 32 24.5 53t57.5 21q24 0 39.5 -14t15.5 -37q0 -30 -25 -52t-57 -22q-25 0 -40 14t-15 37z" />
<glyph unicode="&#xf8;" d="M70 395q0 123 40.5 227.5t107 176t153.5 121.5t179.5 70t185 15t169.5 -38l109 147h86l-129 -178q75 -48 118.5 -136t43.5 -202q0 -120 -39 -223t-104 -174t-150 -121.5t-176.5 -72.5t-183.5 -20t-171 31l-96 -133h-84l117 164q-81 49 -128.5 138t-47.5 208zM166 416 q0 -98 38.5 -170.5t106.5 -110.5l541 752q-62 29 -138 33.5t-152 -12.5t-147.5 -58.5t-126.5 -101t-88.5 -146t-33.5 -186.5zM367 100q63 -24 137.5 -26t148.5 17t143 61.5t121.5 101.5t84.5 144t32 182q0 91 -34 161t-95 109z" />
<glyph unicode="&#xf9;" horiz-adv-x="1173" d="M109 387l127 600h98l-127 -600q-35 -162 35 -239.5t219 -77.5q147 0 250 89.5t135 243.5l125 584h96l-156 -735q-28 -121 -12.5 -157t98.5 -19l-14 -80q-123 -18 -160.5 12.5t-13.5 145.5q-92 -99 -180 -138t-211 -39q-182 0 -265.5 114.5t-43.5 295.5zM580 1419l2 8 l90 39l112 -254v-6h-86z" />
<glyph unicode="&#xfa;" horiz-adv-x="1173" d="M109 387l127 600h98l-127 -600q-35 -162 35 -239.5t219 -77.5q147 0 250 89.5t135 243.5l125 584h96l-156 -735q-28 -121 -12.5 -157t98.5 -19l-14 -80q-123 -18 -160.5 12.5t-13.5 145.5q-92 -99 -180 -138t-211 -39q-182 0 -265.5 114.5t-43.5 295.5zM625 1206l2 6 l219 252l74 -39l-2 -8l-207 -211h-86z" />
<glyph unicode="&#xfb;" horiz-adv-x="1173" d="M109 387l127 600h98l-127 -600q-35 -162 35 -239.5t219 -77.5q147 0 250 89.5t135 243.5l125 584h96l-156 -735q-28 -121 -12.5 -157t98.5 -19l-14 -80q-123 -18 -160.5 12.5t-13.5 145.5q-92 -99 -180 -138t-211 -39q-182 0 -265.5 114.5t-43.5 295.5zM406 1221l2 10 l317 242h96l215 -244l-2 -8h-102l-170 192l-256 -192h-100z" />
<glyph unicode="&#xfc;" horiz-adv-x="1173" d="M109 387l127 600h98l-127 -600q-35 -162 35 -239.5t219 -77.5q147 0 250 89.5t135 243.5l125 584h96l-156 -735q-28 -121 -12.5 -157t98.5 -19l-14 -80q-123 -18 -160.5 12.5t-13.5 145.5q-92 -99 -180 -138t-211 -39q-182 0 -265.5 114.5t-43.5 295.5zM459 1333 q0 34 24 55t58 21q26 0 41.5 -14t15.5 -39q0 -30 -25 -52t-57 -22q-28 0 -42.5 14.5t-14.5 36.5zM897 1333q0 34 24 55t58 21q25 0 40 -14t15 -39q0 -30 -24.5 -52t-57.5 -22q-25 0 -40 15t-15 36z" />
<glyph unicode="&#xfd;" d="M10 -430l31 88q77 -49 170.5 -76.5t193.5 -25t188 36.5t155.5 118t93.5 209l61 283q-149 -228 -422 -228q-203 0 -292.5 123t-36.5 367l63 303q11 55 11 90t-28.5 47.5t-93.5 1.5q3 11 8.5 39t8.5 39q138 24 179 -25t15 -182l-65 -313q-44 -214 18 -308t246 -94 q90 0 170 41t135.5 109t93 147t54.5 162l98 465h96l-227 -1067q-25 -120 -83 -212t-134.5 -145t-168 -79.5t-185 -23t-185 31.5t-168.5 78zM668 1204l2 6l231 269l78 -41l-2 -11l-219 -223h-90z" />
<glyph unicode="&#xfe;" horiz-adv-x="1191" d="M-68 -506l420 1979h99l-123 -584q92 58 186.5 88t177.5 30.5t156 -25.5t125 -75.5t82 -126t30 -170.5q0 -131 -44.5 -244t-118 -190.5t-170.5 -126t-198 -59t-204.5 20t-187.5 102.5l-131 -619h-99zM182 213q67 -70 155 -104.5t175.5 -33t173 38t151 100.5t106 163.5 t40.5 218.5q0 83 -28 148.5t-76 105t-114.5 57.5t-140.5 11.5t-157 -39t-162 -88.5z" />
<glyph unicode="&#xff;" d="M10 -430l31 88q77 -49 170.5 -76.5t193.5 -25t188 36.5t155.5 118t93.5 209l61 283q-149 -228 -422 -228q-203 0 -292.5 123t-36.5 367l63 303q11 55 11 90t-28.5 47.5t-93.5 1.5q3 11 8.5 39t8.5 39q138 24 179 -25t15 -182l-65 -313q-44 -214 18 -308t246 -94 q90 0 170 41t135.5 109t93 147t54.5 162l98 465h96l-227 -1067q-25 -120 -83 -212t-134.5 -145t-168 -79.5t-185 -23t-185 31.5t-168.5 78zM489 1337q0 35 24 56.5t60 21.5q26 0 42 -15t16 -40q0 -30 -25.5 -53t-58.5 -23q-28 0 -43 14.5t-15 38.5zM938 1337q0 35 24 56.5 t60 21.5q25 0 41 -15t16 -40q0 -30 -25.5 -53t-58.5 -23q-28 0 -42.5 14.5t-14.5 38.5z" />
<glyph unicode="&#x152;" horiz-adv-x="1902" d="M125 555q0 262 118.5 468t326.5 319.5t468 113.5q110 0 224 -24h694l-21 -89h-628l-117 -555h600l-21 -92h-600q-80 -381 -129 -606h637l-18 -90h-711q-135 -29 -235 -29q-276 0 -432 158t-156 426zM227 573q0 -231 134.5 -372.5t375.5 -141.5q101 0 209 27l268 1262 q-94 20 -192 20q-230 0 -412.5 -105t-282.5 -286t-100 -404z" />
<glyph unicode="&#x153;" horiz-adv-x="1863" d="M70 381q0 119 35 222t93.5 175.5t134 125t158 77.5t164.5 25q133 0 233.5 -75.5t127.5 -211.5q80 137 206 213t275 76q69 0 130 -19t109 -58.5t64 -101t-6 -145.5q-21 -74 -66.5 -128.5t-104.5 -85t-120 -44.5t-125 -14q-110 0 -207 28.5t-153 89.5q-61 -214 21.5 -340.5 t283.5 -126.5q160 0 315 70l-18 -84q-155 -67 -320 -67q-324 0 -372 276q-84 -133 -217.5 -203.5t-270.5 -70.5q-158 0 -264 104t-106 293zM154 401q-7 -156 78 -241.5t214 -85.5q86 0 171.5 34t158 96t119.5 162.5t51 221.5q4 154 -79 242t-210 88q-67 0 -136 -21 t-133.5 -64t-115.5 -103.5t-83 -145.5t-35 -183zM1049 616q47 -58 141.5 -89t191.5 -31q48 0 94.5 9t94.5 29.5t85 60t52 93.5q18 63 5.5 107.5t-51.5 72.5t-86 41t-99 13q-143 2 -256 -77t-172 -229z" />
<glyph unicode="&#x178;" horiz-adv-x="1273" d="M225 1421q0 3 1 6.5t1 6.5h105l313 -727h4l621 727h119l-3 -15l-704 -823l-127 -596h-102l127 596zM553 1614q0 35 24 56.5t60 21.5q26 0 41.5 -15.5t15.5 -40.5q0 -30 -25.5 -52.5t-58.5 -22.5q-28 0 -42.5 14.5t-14.5 38.5zM1001 1614q0 35 24 56.5t60 21.5 q25 0 41.5 -15.5t16.5 -40.5q0 -30 -25.5 -52.5t-58.5 -22.5q-28 0 -43 14.5t-15 38.5z" />
<glyph unicode="&#x2c6;" horiz-adv-x="1011" d="M418 1176l2 10l334 254h100l225 -256l-2 -8h-106l-178 200l-269 -200h-106z" />
<glyph unicode="&#x2dc;" horiz-adv-x="860" d="M414 1327q74 94 165 116.5t183 -38.5q55 -44 108 -36.5t111 77.5q10 -6 28 -18t23 -15q-69 -95 -153 -117.5t-172 37.5q-58 45 -117.5 37.5t-120.5 -78.5q-7 5 -27.5 17.5t-27.5 17.5z" />
<glyph unicode="&#x2000;" horiz-adv-x="932" />
<glyph unicode="&#x2001;" horiz-adv-x="1864" />
<glyph unicode="&#x2002;" horiz-adv-x="932" />
<glyph unicode="&#x2003;" horiz-adv-x="1864" />
<glyph unicode="&#x2004;" horiz-adv-x="621" />
<glyph unicode="&#x2005;" horiz-adv-x="466" />
<glyph unicode="&#x2006;" horiz-adv-x="310" />
<glyph unicode="&#x2007;" horiz-adv-x="310" />
<glyph unicode="&#x2008;" horiz-adv-x="233" />
<glyph unicode="&#x2009;" horiz-adv-x="372" />
<glyph unicode="&#x200a;" horiz-adv-x="103" />
<glyph unicode="&#x2010;" horiz-adv-x="933" d="M154 639l18 88h641l-18 -88h-641z" />
<glyph unicode="&#x2011;" horiz-adv-x="933" d="M154 639l18 88h641l-18 -88h-641z" />
<glyph unicode="&#x2012;" horiz-adv-x="933" d="M154 639l18 88h641l-18 -88h-641z" />
<glyph unicode="&#x2013;" horiz-adv-x="1114" d="M154 639l18 88h821l-18 -88h-821z" />
<glyph unicode="&#x2014;" horiz-adv-x="1294" d="M154 639l18 88h1002l-19 -88h-1001z" />
<glyph unicode="&#x2018;" horiz-adv-x="423" d="M281 1229q0 6 4 22q1 2 7 18.5t11 24.5l76 142h67l-67 -133q39 -9 39 -50q0 -34 -24 -54.5t-60 -20.5q-53 0 -53 51z" />
<glyph unicode="&#x2019;" horiz-adv-x="423" d="M285 1180l67 131q-37 9 -37 51q0 31 25 52.5t57 21.5q25 0 40.5 -13.5t15.5 -36.5q0 -10 -7 -24q-10 -28 -18 -43l-74 -139h-69z" />
<glyph unicode="&#x201a;" horiz-adv-x="448" d="M6 -162l74 144q-39 9 -39 49q0 32 24 52.5t60 20.5q24 0 39.5 -13t15.5 -36q0 -12 -6 -24q-14 -32 -20 -43q-14 -22 -27 -46.5t-28.5 -57t-22.5 -46.5h-70z" />
<glyph unicode="&#x201c;" horiz-adv-x="702" d="M281 1225q0 12 6 24l20 41l74 142h68l-66 -132q35 -9 35 -51q0 -32 -23.5 -52.5t-56.5 -20.5q-25 0 -41 13t-16 36zM553 1225q0 12 6 24q13 31 19 41l73 142h70l-68 -132q37 -9 37 -51q0 -32 -23.5 -52.5t-58.5 -20.5q-25 0 -40 13t-15 36z" />
<glyph unicode="&#x201d;" horiz-adv-x="698" d="M285 1180l67 131q-37 9 -37 51q0 31 25 52.5t57 21.5q25 0 40.5 -13.5t15.5 -36.5q0 -10 -7 -24q-10 -28 -18 -43l-74 -139h-69zM559 1180l68 131q-37 9 -37 51q0 32 23.5 53t58.5 21q24 0 39.5 -13.5t15.5 -36.5q0 -12 -6 -24q-4 -8 -9.5 -21.5t-9.5 -21.5l-73 -139h-70 z" />
<glyph unicode="&#x201e;" horiz-adv-x="731" d="M6 -156l70 138q-35 9 -35 49q0 32 23.5 52.5t56.5 20.5q25 0 41 -13t16 -36q0 -12 -6 -24l-20 -41q-15 -26 -41 -76t-37 -70h-68zM289 -156l71 138q-36 9 -36 49q0 32 23.5 52.5t58.5 20.5q25 0 40 -13t15 -36q0 -12 -6 -24q-13 -31 -19 -41q-31 -55 -78 -146h-69z" />
<glyph unicode="&#x2022;" horiz-adv-x="731" d="M221 707q0 79 62 130.5t143 51.5q61 0 100 -35t39 -94q0 -77 -64.5 -133t-142.5 -56q-59 0 -98 39t-39 97z" />
<glyph unicode="&#x2026;" horiz-adv-x="1204" d="M43 43q0 35 26 57.5t62 22.5q27 0 44.5 -15.5t17.5 -39.5q0 -34 -27.5 -57t-63.5 -23q-26 0 -42.5 15.5t-16.5 39.5zM410 43q0 35 26 57.5t62 22.5q27 0 44 -15.5t17 -39.5q0 -34 -27 -57t-63 -23q-26 0 -42.5 15.5t-16.5 39.5zM786 43q0 35 26 57.5t62 22.5 q27 0 44.5 -15.5t17.5 -39.5q0 -34 -27 -57t-63 -23q-29 0 -44.5 15t-15.5 40z" />
<glyph unicode="&#x202f;" horiz-adv-x="372" />
<glyph unicode="&#x2039;" horiz-adv-x="600" d="M147 709l353 436l75 -25l-307 -411l133 -408l-86 -27z" />
<glyph unicode="&#x203a;" horiz-adv-x="600" d="M78 301l305 408l-131 411l86 25l166 -436l-352 -435z" />
<glyph unicode="&#x205f;" horiz-adv-x="466" />
<glyph unicode="&#x20ac;" horiz-adv-x="1353" d="M84 522l16 80h162q10 122 49 232h-161l18 79h176q109 245 328.5 391t480.5 146q115 0 227 -39l-49 -82q-90 35 -194 35q-226 0 -409 -120.5t-282 -330.5h594l-47 -79h-585q-40 -114 -50 -232h510l-43 -80h-465q8 -205 141 -328.5t357 -123.5q134 0 264 53l15 -84 q-140 -57 -299 -57q-264 0 -419.5 146.5t-160.5 393.5h-174z" />
<glyph unicode="&#x2122;" horiz-adv-x="1533" d="M293 1370l14 66h508l-14 -66h-215l-109 -506h-74l109 506h-219zM805 864l123 572h43l192 -324l330 324h45l-123 -572h-76l88 414l-282 -279h-10l-166 279l-88 -414h-76z" />
<glyph unicode="&#x25fc;" horiz-adv-x="983" d="M0 0v983h983v-983h-983z" />
</font>
</defs>
</svg>
